<?xml version="1.0" standalone="no"?>
<!DOCTYPE svg PUBLIC "-//W3C//DTD SVG 20010904//EN"
 "http://www.w3.org/TR/2001/REC-SVG-20010904/DTD/svg10.dtd">
<svg version="1.0" xmlns="http://www.w3.org/2000/svg"
 width="1797.000000pt" height="512.000000pt" viewBox="0 0 1797.000000 512.000000"
 preserveAspectRatio="xMidYMid meet">

<g transform="translate(0.000000,512.000000) scale(0.100000,-0.100000)"
fill="#000000" stroke="none">
<path d="M50 2550 l0 -2540 2550 0 2550 0 0 2540 0 2540 -2550 0 -2550 0 0
-2540z m4416 2226 c3 -8 -6 -28 -21 -43 -14 -15 -34 -40 -43 -55 -9 -16 -20
-28 -24 -28 -4 0 -8 -4 -8 -10 0 -5 -34 -56 -76 -112 -42 -57 -83 -114 -92
-126 -10 -13 -29 -38 -44 -55 -15 -18 -28 -35 -28 -38 0 -4 -13 -22 -30 -40
-16 -19 -30 -37 -30 -41 0 -4 -6 -13 -13 -20 -7 -7 -24 -29 -37 -48 -13 -19
-27 -37 -30 -40 -3 -3 -26 -34 -52 -70 -25 -36 -58 -78 -72 -95 -14 -16 -26
-36 -26 -42 0 -7 -4 -13 -8 -13 -4 0 -16 -14 -26 -30 -9 -17 -28 -41 -42 -55
-13 -13 -24 -27 -24 -31 0 -5 -60 -89 -103 -144 -61 -78 -97 -128 -97 -136 0
-5 -9 -16 -20 -24 -11 -8 -20 -20 -20 -26 0 -6 -14 -25 -30 -42 -17 -18 -30
-36 -30 -40 0 -5 -13 -23 -30 -40 -16 -18 -30 -36 -30 -40 0 -5 -8 -17 -18
-28 -10 -10 -28 -35 -42 -54 -13 -19 -27 -37 -30 -40 -3 -3 -17 -21 -30 -40
-13 -19 -30 -41 -37 -48 -7 -7 -13 -16 -13 -20 0 -4 -14 -22 -30 -41 -17 -18
-30 -37 -30 -41 0 -4 -9 -18 -21 -31 l-21 -24 -1378 0 c-758 0 -1381 3 -1384
6 -8 8 -8 1837 0 1850 3 5 830 9 2060 9 1785 0 2055 -2 2060 -14z m390 -40
c21 -22 21 -4430 0 -4452 -22 -21 -3304 -21 -3312 0 -3 8 12 38 33 68 42 59
41 57 85 115 33 42 53 70 126 168 20 27 42 55 47 61 6 6 23 32 39 57 17 26 34
47 38 47 4 0 8 5 8 11 0 6 6 16 13 24 23 25 47 55 47 61 0 3 6 11 13 19 26 28
47 56 47 63 0 5 8 17 18 28 10 10 28 35 42 54 13 19 27 37 30 40 3 3 17 21 30
40 13 19 27 37 30 40 3 3 17 21 30 40 14 19 32 44 42 54 10 11 18 25 18 31 0
6 9 17 20 25 11 8 20 20 20 26 0 6 13 25 30 42 17 18 30 36 30 40 0 5 14 23
30 40 17 18 30 36 30 40 0 5 8 17 18 28 10 10 28 35 42 54 13 19 27 37 30 40
3 3 17 21 30 40 14 19 28 40 33 45 6 9 45 62 101 140 25 35 69 92 134 175 34
44 62 84 62 88 0 5 8 17 18 28 10 10 28 35 42 54 13 19 27 37 30 40 3 3 17 21
30 40 13 19 27 37 30 40 3 3 17 21 30 40 13 19 30 41 37 48 7 7 13 17 13 22 0
5 11 20 25 34 14 14 25 29 25 34 0 5 14 23 30 40 17 18 30 36 30 40 0 5 14 23
30 40 17 18 30 37 30 43 0 7 8 19 18 28 10 9 29 32 42 51 13 19 27 37 30 40 3
3 17 21 30 40 14 19 32 44 42 54 10 11 18 25 18 31 0 6 9 17 20 25 11 8 20 20
20 27 0 7 5 13 10 13 6 0 10 7 10 15 0 8 4 15 8 15 4 0 15 12 24 28 9 15 26
38 38 52 12 14 30 36 39 50 9 14 21 32 28 40 7 8 30 40 52 70 22 30 51 71 66
90 15 19 67 89 116 155 49 66 96 128 103 137 8 9 20 27 27 39 6 13 22 34 35
48 13 14 24 29 24 33 0 3 6 13 13 20 7 7 24 29 37 48 13 19 32 42 42 51 10 9
18 20 18 25 0 5 14 25 30 44 16 19 30 38 30 43 0 4 14 21 30 39 17 17 30 35
30 39 0 8 104 150 135 185 31 36 45 55 45 63 0 5 4 11 8 13 5 2 23 26 42 53
19 28 42 59 52 69 10 11 18 24 18 28 0 5 11 20 25 34 14 14 25 29 25 34 0 5
11 20 25 34 14 14 25 28 25 31 0 8 110 145 116 145 3 0 12 -6 20 -14z m-1996
-2134 c0 -10 -20 -39 -102 -148 -37 -50 -68 -95 -68 -100 0 -5 -9 -16 -20 -24
-11 -8 -20 -20 -20 -27 0 -7 -4 -13 -10 -13 -5 0 -10 -6 -10 -13 0 -7 -9 -19
-20 -27 -11 -8 -20 -20 -20 -26 0 -6 -13 -25 -30 -42 -17 -18 -30 -36 -30 -40
0 -5 -14 -23 -30 -40 -17 -18 -30 -35 -30 -39 0 -5 -14 -24 -30 -43 -16 -19
-30 -38 -30 -43 0 -4 -14 -21 -30 -39 -17 -17 -30 -36 -30 -42 0 -6 -9 -18
-20 -26 -11 -8 -20 -20 -20 -26 0 -6 -13 -25 -30 -42 -16 -18 -30 -34 -30 -37
0 -5 -39 -58 -88 -120 -4 -5 -19 -25 -32 -44 -33 -46 -238 -322 -253 -341 -7
-8 -23 -31 -37 -50 -13 -19 -30 -41 -37 -48 -7 -7 -13 -17 -13 -22 0 -4 -13
-22 -30 -40 -16 -18 -30 -36 -30 -40 0 -5 -6 -15 -13 -22 -7 -7 -24 -29 -37
-48 -13 -19 -32 -42 -42 -51 -10 -9 -18 -21 -18 -26 0 -5 -8 -18 -18 -29 -10
-10 -29 -35 -42 -54 -13 -19 -32 -44 -42 -54 -10 -11 -18 -25 -18 -31 0 -6 -9
-17 -20 -25 -11 -8 -20 -20 -20 -26 0 -6 -13 -25 -30 -42 -16 -18 -30 -36 -30
-42 0 -5 -4 -10 -10 -10 -5 0 -10 -6 -10 -13 0 -7 -9 -19 -20 -27 -11 -8 -20
-20 -20 -26 0 -6 -14 -25 -30 -42 -17 -18 -30 -35 -30 -40 0 -4 -13 -23 -30
-42 -16 -19 -29 -38 -30 -42 0 -7 -7 -17 -53 -71 -19 -22 -21 -22 -420 -22
l-402 0 -5 1155 c-3 635 -3 1161 -1 1168 2 9 263 12 1262 12 692 0 1259 -3
1259 -8z"/>
<path d="M6470 3314 l0 -135 470 3 c384 2 470 1 470 -10 0 -11 -68 -102 -91
-122 -3 -3 -25 -34 -49 -70 -24 -36 -52 -74 -62 -84 -10 -11 -18 -24 -18 -28
0 -5 -9 -18 -20 -30 -11 -12 -20 -28 -20 -35 0 -7 -3 -13 -8 -13 -4 0 -18 -18
-32 -40 -14 -22 -28 -40 -32 -40 -4 0 -9 -8 -13 -19 -3 -10 -17 -31 -30 -47
-14 -16 -25 -35 -25 -41 0 -7 -4 -13 -8 -13 -4 0 -15 -12 -24 -27 -9 -16 -28
-41 -42 -58 -14 -16 -26 -34 -26 -38 0 -4 -8 -17 -18 -28 -11 -10 -25 -32 -33
-47 -8 -15 -19 -33 -26 -40 -7 -7 -20 -26 -30 -42 -9 -17 -21 -30 -25 -30 -4
0 -8 -6 -8 -12 0 -7 -10 -25 -23 -40 -12 -15 -38 -50 -57 -78 -19 -28 -43 -60
-52 -72 -10 -11 -20 -29 -23 -39 -4 -11 -10 -19 -14 -19 -5 0 -14 -13 -21 -30
-7 -16 -16 -30 -20 -30 -4 0 -11 -8 -16 -19 -5 -10 -19 -32 -32 -47 -77 -98
-82 -112 -82 -221 l0 -103 700 0 700 0 0 135 0 135 -500 0 c-299 0 -500 4
-500 9 0 10 50 74 63 79 4 2 7 8 7 13 0 8 19 34 46 63 5 6 39 54 74 106 35 52
66 97 69 100 4 3 37 50 74 105 37 55 78 113 92 129 14 16 25 32 25 36 0 4 11
20 25 36 14 16 25 34 25 39 0 6 9 17 20 25 11 8 20 18 20 22 0 4 28 48 63 99
34 50 67 98 72 107 6 9 18 24 28 33 9 9 17 20 17 25 0 5 14 25 30 44 16 19 30
41 30 48 0 6 5 12 10 12 6 0 10 7 10 15 0 8 3 15 8 15 4 0 12 8 17 19 15 29
117 174 137 195 15 17 18 38 18 128 l0 108 -670 0 -670 0 0 -136z"/>
<path d="M9150 2510 l0 -940 573 2 572 3 0 130 0 130 -411 3 -412 2 -6 23 c-8
29 -8 475 0 505 l6 22 319 0 319 0 0 129 0 130 -315 3 c-268 3 -317 5 -325 18
-10 16 -14 451 -4 488 l6 22 389 0 388 0 3 135 3 135 -552 0 -553 0 0 -940z"/>
<path d="M10608 3438 c7 -7 12 -21 12 -33 0 -12 4 -25 9 -30 5 -6 18 -39 30
-75 12 -36 26 -73 31 -82 6 -10 10 -25 10 -33 0 -8 4 -23 9 -33 5 -9 19 -44
31 -77 12 -33 26 -69 30 -80 5 -11 23 -60 40 -110 17 -49 35 -98 41 -108 5 -9
16 -39 25 -65 8 -26 20 -58 26 -72 21 -50 58 -150 94 -260 8 -25 19 -54 23
-65 5 -11 14 -36 21 -55 7 -19 16 -44 21 -55 4 -11 15 -40 23 -65 18 -58 65
-180 77 -202 5 -10 9 -27 9 -38 0 -11 5 -20 10 -20 6 0 10 -13 10 -30 0 -16 4
-30 8 -30 5 0 15 -23 22 -51 8 -27 18 -52 22 -55 4 -3 8 -16 8 -30 0 -13 5
-24 10 -24 6 0 10 -8 10 -18 0 -10 6 -30 13 -45 l12 -27 155 2 154 3 19 55
c16 46 68 184 97 255 4 11 13 36 20 55 7 19 16 44 20 55 4 11 13 36 20 55 7
19 16 44 20 55 5 11 18 49 30 85 20 61 25 75 49 133 6 12 20 54 33 92 13 39
26 72 30 73 5 2 8 14 8 27 0 13 4 26 8 29 4 3 14 28 22 56 8 28 18 53 22 56 4
3 8 16 8 30 0 13 5 24 10 24 6 0 10 11 10 24 0 14 4 27 8 30 4 3 14 28 22 56
8 28 18 53 22 56 4 3 8 16 8 30 0 13 5 24 10 24 6 0 10 11 10 24 0 14 4 27 8
30 4 3 14 28 22 56 8 28 18 53 22 56 4 3 8 16 8 30 0 13 5 24 10 24 6 0 10 11
10 24 0 14 5 28 10 31 6 3 10 17 10 31 0 13 5 24 10 24 6 0 10 9 10 20 0 11 5
29 10 40 6 11 15 29 20 40 6 11 10 29 10 40 0 11 5 20 10 20 6 0 10 7 10 15 0
13 -26 15 -170 15 l-170 0 0 -24 c0 -14 -4 -28 -10 -31 -5 -3 -10 -17 -10 -30
0 -13 -4 -27 -10 -30 -5 -3 -10 -17 -10 -30 0 -13 -4 -27 -10 -30 -5 -3 -10
-15 -10 -26 0 -10 -4 -27 -9 -37 -5 -9 -18 -48 -30 -87 -12 -38 -26 -79 -31
-90 -5 -11 -37 -105 -71 -210 -34 -104 -66 -194 -71 -200 -4 -5 -8 -19 -8 -31
0 -13 -4 -26 -10 -29 -5 -3 -10 -17 -10 -30 0 -13 -4 -27 -10 -30 -5 -3 -10
-17 -10 -31 0 -13 -4 -24 -10 -24 -5 0 -10 -13 -10 -29 0 -17 -4 -33 -10 -36
-5 -3 -10 -17 -10 -30 0 -13 -4 -27 -10 -30 -5 -3 -10 -17 -10 -30 0 -13 -4
-27 -10 -30 -5 -3 -10 -17 -10 -30 0 -13 -4 -27 -10 -30 -5 -3 -10 -19 -10
-36 0 -16 -4 -29 -10 -29 -5 0 -10 -18 -10 -40 0 -22 -4 -40 -10 -40 -5 0 -10
-16 -10 -35 0 -45 -19 -85 -41 -85 -22 0 -49 53 -49 96 0 18 -4 36 -10 39 -5
3 -10 21 -10 40 0 19 -4 37 -10 40 -5 3 -10 17 -10 30 0 13 -4 27 -10 30 -5 3
-10 17 -10 30 0 13 -4 27 -10 30 -5 3 -10 17 -10 30 0 13 -4 27 -10 30 -5 3
-10 15 -10 26 0 10 -4 27 -9 37 -5 9 -19 51 -32 92 -12 41 -26 79 -31 85 -4 5
-8 17 -8 27 0 10 -4 26 -9 36 -5 9 -15 37 -22 62 -7 25 -16 49 -21 55 -4 5 -8
19 -8 31 0 13 -4 26 -10 29 -5 3 -10 17 -10 31 0 13 -4 24 -10 24 -5 0 -10 14
-10 30 0 17 -4 30 -10 30 -5 0 -10 14 -10 30 0 17 -4 30 -10 30 -5 0 -10 14
-10 30 0 17 -4 30 -10 30 -5 0 -10 14 -10 30 0 17 -4 30 -10 30 -5 0 -10 14
-10 30 0 17 -4 30 -10 30 -5 0 -10 14 -10 30 0 17 -4 30 -10 30 -5 0 -10 14
-10 30 0 17 -4 30 -10 30 -5 0 -10 14 -10 30 0 17 -4 30 -10 30 -5 0 -10 11
-10 24 0 14 -4 28 -10 31 -5 3 -10 15 -10 26 0 18 -8 19 -172 19 -134 0 -169
-3 -160 -12z"/>
<path d="M12720 2510 l0 -940 570 0 570 0 0 135 0 135 -404 0 c-222 0 -411 3
-420 6 -14 5 -16 38 -16 263 0 187 3 260 12 269 9 9 95 12 324 12 l312 0 0
124 c0 68 -3 127 -7 132 -3 5 -141 9 -306 9 -165 0 -308 3 -317 7 -17 7 -18
29 -18 257 0 218 2 250 16 255 9 3 189 6 400 6 l384 0 0 135 0 135 -550 0
-550 0 0 -940z"/>
<path d="M14400 2510 l0 -940 155 0 155 0 -4 628 c-2 345 -7 655 -11 690 -6
59 -6 62 15 62 25 0 50 -22 50 -44 0 -9 5 -16 10 -16 6 0 10 -9 10 -20 0 -11
5 -20 10 -20 6 0 10 -9 10 -19 0 -11 3 -21 8 -23 9 -4 41 -57 49 -80 3 -10 9
-18 14 -18 5 0 9 -7 9 -15 0 -9 9 -25 20 -37 11 -12 20 -28 20 -35 0 -7 4 -13
9 -13 5 0 14 -13 21 -30 7 -16 16 -30 20 -30 4 0 13 -13 20 -30 7 -16 15 -30
19 -30 4 0 22 -26 41 -57 19 -32 40 -64 47 -71 6 -6 15 -21 18 -32 3 -11 10
-20 14 -20 5 0 14 -13 21 -30 7 -16 16 -30 21 -30 5 0 9 -6 9 -13 0 -7 9 -23
20 -35 11 -12 20 -24 20 -27 0 -3 18 -33 40 -65 22 -32 40 -64 40 -69 0 -6 4
-11 9 -11 5 0 25 -26 45 -57 19 -32 40 -63 46 -70 5 -7 15 -24 22 -38 6 -14
14 -25 18 -25 4 0 13 -13 20 -30 7 -16 16 -30 21 -30 4 0 11 -9 14 -20 3 -11
12 -26 18 -32 7 -7 25 -34 40 -60 56 -97 58 -98 222 -98 l145 0 2 940 3 940
-147 0 -148 0 0 -651 c0 -448 3 -657 11 -671 16 -31 3 -70 -23 -66 -22 3 -56
50 -57 81 -1 9 -5 17 -11 17 -5 0 -10 9 -10 20 0 11 -4 20 -10 20 -5 0 -10 9
-10 20 0 11 -3 20 -8 20 -4 0 -18 21 -32 48 -13 26 -27 49 -31 52 -3 3 -12 16
-19 29 -7 13 -97 152 -201 309 -104 156 -189 287 -189 291 0 4 -8 14 -17 23
-10 8 -31 39 -48 67 -16 28 -33 51 -37 51 -5 0 -8 5 -8 11 0 5 -18 37 -40 69
-22 32 -40 63 -40 68 0 5 -9 17 -20 27 -11 10 -20 23 -21 29 0 6 -16 31 -35
56 -19 25 -37 53 -40 63 -6 15 -23 17 -170 17 l-164 0 0 -940z"/>
<path d="M16352 3328 c-1 -68 1 -129 6 -135 6 -10 85 -13 317 -15 l310 -3 3
-803 2 -803 153 3 152 3 3 803 2 802 310 0 310 0 0 135 0 135 -783 0 -783 0
-2 -122z"/>
</g>
</svg>
