<?xml version="1.0" standalone="no"?>
<!DOCTYPE svg PUBLIC "-//W3C//DTD SVG 20010904//EN"
 "http://www.w3.org/TR/2001/REC-SVG-20010904/DTD/svg10.dtd">
<svg version="1.0" xmlns="http://www.w3.org/2000/svg"
 width="679.000000pt" height="246.000000pt" viewBox="0 0 679.000000 246.000000"
 preserveAspectRatio="xMidYMid meet">
<metadata>
Created by potrace 1.16, written by Peter Selinger 2001-2019
</metadata>
<g transform="translate(0.000000,246.000000) scale(0.100000,-0.100000)"
fill="#000000" stroke="none">
<path d="M918 2423 c34 -43 68 -113 55 -113 -5 0 -21 16 -36 35 -15 19 -41 42
-58 50 l-30 16 35 -49 c77 -106 71 -188 -20 -293 -59 -68 -79 -106 -89 -164
l-6 -40 22 25 c12 14 26 32 33 40 17 24 69 58 99 65 15 4 27 12 27 19 0 6 16
31 36 56 20 25 42 60 50 79 41 99 -11 229 -121 297 l-30 19 33 -42z"/>
<path d="M1860 2056 c0 -64 4 -106 10 -106 6 0 10 34 10 82 0 45 4 78 8 73 5
-6 22 -41 37 -78 16 -37 32 -70 36 -72 3 -3 23 32 43 78 l35 82 1 -82 c0 -49
4 -83 10 -83 6 0 10 42 10 105 0 132 -12 136 -61 19 l-36 -85 -35 83 c-21 51
-41 84 -51 86 -15 3 -17 -9 -17 -102z"/>
<path d="M2132 1749 c-62 -31 -92 -87 -92 -173 0 -127 55 -188 175 -194 62 -3
74 -1 107 21 l37 26 3 -22 c2 -12 11 -23 21 -25 15 -3 17 7 17 102 l0 106 -90
0 c-72 0 -90 -3 -90 -15 0 -11 16 -15 68 -17 67 -3 67 -3 70 -33 5 -50 -34
-98 -89 -109 -25 -5 -62 -6 -82 -2 -78 15 -128 109 -107 201 20 90 63 125 150
125 60 0 100 -18 120 -54 12 -23 50 -37 50 -18 0 23 -44 74 -76 87 -53 22
-140 19 -192 -6z"/>
<path d="M2623 1758 c-5 -7 -16 -29 -23 -48 -8 -19 -40 -97 -72 -173 -32 -76
-58 -143 -58 -148 0 -6 8 -9 17 -7 10 2 27 29 43 68 l26 65 90 3 91 3 28 -71
c21 -52 33 -70 47 -70 25 0 24 1 -70 218 -76 171 -93 194 -119 160z"/>
<path d="M2900 1755 c0 -13 20 -15 125 -15 69 0 125 -3 125 -6 0 -9 -51 -73
-163 -203 -59 -69 -106 -130 -104 -136 6 -16 319 -13 325 3 3 9 -28 12 -132
12 -75 0 -136 2 -136 5 0 3 60 78 133 165 72 88 132 166 132 173 0 9 -39 13
-152 15 -132 2 -153 0 -153 -13z"/>
<path d="M3280 1575 l0 -196 137 3 c98 2 138 6 141 16 3 9 -25 12 -117 12
l-121 0 0 80 0 80 110 0 c91 0 110 3 110 15 0 12 -19 15 -110 15 l-110 0 0 70
0 70 115 0 c96 0 115 3 115 15 0 13 -22 15 -135 15 l-135 0 0 -195z"/>
<path d="M3640 1575 l0 -196 132 3 c94 2 133 7 136 16 3 9 -24 12 -112 12
l-116 0 0 180 c0 173 -1 180 -20 180 -19 0 -20 -7 -20 -195z"/>
<path d="M3970 1575 l0 -195 135 0 c113 0 135 2 135 15 0 12 -19 15 -115 15
l-115 0 0 180 c0 173 -1 180 -20 180 -19 0 -20 -7 -20 -195z"/>
<path d="M4310 1575 l0 -196 132 3 c94 2 133 7 136 16 3 9 -25 12 -117 12
l-121 0 0 80 0 80 110 0 c91 0 110 3 110 15 0 12 -19 15 -110 15 l-110 0 0 70
0 70 115 0 c96 0 115 3 115 15 0 13 -21 15 -130 15 l-130 0 0 -195z"/>
<path d="M4905 1756 c-124 -55 -142 -257 -29 -342 34 -26 45 -29 113 -29 83 0
114 14 145 67 20 33 20 38 -2 38 -11 0 -24 -11 -30 -26 -22 -48 -123 -70 -182
-39 -53 27 -75 71 -75 150 0 79 22 123 75 150 62 32 169 7 185 -44 7 -23 45
-29 45 -7 0 23 -42 68 -76 82 -42 18 -130 17 -169 0z"/>
<path d="M5240 1575 c0 -188 1 -195 20 -195 19 0 20 7 20 91 l0 91 85 -3 c108
-5 118 -14 123 -109 4 -62 7 -70 24 -70 16 0 19 5 14 23 -3 12 -6 45 -6 73 0
42 -5 57 -24 75 l-24 23 29 27 c55 51 28 137 -49 159 -20 5 -76 10 -124 10
l-88 0 0 -195z m229 141 c31 -28 28 -79 -5 -105 -22 -17 -41 -21 -105 -21
l-79 0 0 76 0 76 84 -3 c65 -3 89 -8 105 -23z"/>
<path d="M5630 1575 l0 -195 140 0 c118 0 140 2 140 15 0 13 -20 15 -120 15
l-120 0 0 80 0 80 110 0 c91 0 110 3 110 15 0 12 -19 15 -110 15 l-110 0 0 70
0 70 115 0 c96 0 115 3 115 15 0 13 -22 15 -135 15 l-135 0 0 -195z"/>
<path d="M5997 1763 c-4 -3 -7 -91 -7 -195 l0 -188 134 0 c110 0 135 3 140 15
5 13 -12 15 -114 15 l-120 0 0 80 0 80 110 0 c91 0 110 3 110 15 0 12 -19 15
-110 15 l-110 0 0 70 0 70 115 0 c96 0 115 3 115 15 0 13 -21 15 -128 15 -71
0 -132 -3 -135 -7z"/>
<path d="M6350 1575 c0 -182 1 -196 18 -193 14 3 17 16 20 80 3 72 5 79 32 98
l28 20 93 -100 c52 -56 101 -100 111 -100 10 0 18 3 18 8 -1 4 -43 52 -95 107
-52 55 -95 103 -95 107 0 4 38 39 84 78 96 79 105 90 77 90 -10 0 -70 -43
-131 -95 -62 -53 -115 -94 -117 -91 -3 3 -6 44 -7 93 -1 75 -4 88 -18 91 -17
3 -18 -11 -18 -193z"/>
<path d="M1522 1175 c1 -148 3 -183 13 -175 13 11 166 234 219 318 l26 42
-129 0 -129 0 0 -185z"/>
<path d="M370 952 c0 -123 4 -193 11 -197 29 -19 58 9 135 127 120 183 119
158 6 206 -53 23 -109 44 -124 48 l-28 6 0 -190z"/>
<path d="M2050 1095 c0 -12 15 -15 75 -15 l75 0 0 -180 c0 -152 2 -180 15
-180 12 0 15 29 17 178 l3 177 73 3 c55 2 72 6 72 17 0 13 -27 15 -165 15
-140 0 -165 -2 -165 -15z"/>
<path d="M2440 915 l0 -196 137 3 c98 2 138 6 141 16 3 9 -25 12 -117 12
l-121 0 0 80 0 80 110 0 c91 0 110 3 110 15 0 12 -19 15 -110 15 l-110 0 0 70
0 70 115 0 c96 0 115 3 115 15 0 13 -22 15 -135 15 l-135 0 0 -195z"/>
<path d="M2875 1096 c-109 -50 -141 -227 -57 -319 47 -53 154 -73 226 -43 28
12 76 68 76 90 0 15 -30 4 -40 -15 -29 -52 -116 -74 -185 -45 -113 47 -110
264 4 308 67 25 154 3 181 -46 7 -14 19 -26 27 -26 23 0 14 29 -21 67 -33 36
-37 38 -108 40 -47 2 -84 -2 -103 -11z"/>
<path d="M3212 918 c3 -174 5 -193 21 -196 15 -3 17 6 17 93 l0 96 128 -3 127
-3 2 -80 c2 -109 1 -105 18 -105 13 0 15 28 15 195 0 162 -2 195 -14 195 -20
0 -24 -18 -19 -72 3 -25 3 -58 -1 -72 l-7 -27 -122 3 -122 3 -3 83 c-3 74 -5
82 -23 82 -19 0 -19 -6 -17 -192z"/>
<path d="M3670 915 c0 -167 2 -195 15 -195 13 0 15 26 15 173 l1 172 25 -30
c13 -16 70 -94 126 -172 81 -113 107 -143 125 -143 l23 0 0 196 c0 181 -1 195
-17 192 -16 -3 -18 -19 -18 -166 0 -89 -2 -162 -5 -162 -3 0 -18 19 -34 43
-134 192 -211 287 -233 287 l-23 0 0 -195z"/>
<path d="M4213 1104 c-12 -3 -40 -23 -62 -44 -95 -93 -66 -266 56 -329 34 -17
133 -14 172 7 19 9 48 34 65 55 27 33 31 48 34 112 5 87 -12 130 -65 171 -30
23 -47 28 -107 30 -39 1 -81 0 -93 -2z m151 -38 c50 -21 76 -71 76 -147 0 -46
-6 -73 -20 -97 -60 -99 -204 -96 -263 6 -24 41 -26 136 -3 181 34 65 130 91
210 57z"/>
<path d="M4580 915 l0 -195 130 0 c108 0 130 3 130 15 0 12 -22 15 -112 17
l-113 3 -3 178 c-2 148 -5 177 -17 177 -13 0 -15 -30 -15 -195z"/>
<path d="M4975 1096 c-101 -44 -136 -203 -67 -301 36 -53 82 -75 155 -75 114
0 187 68 195 181 7 91 -33 164 -105 195 -41 18 -138 17 -178 0z m184 -44 c45
-32 63 -79 58 -149 -7 -99 -60 -153 -149 -153 -24 0 -59 8 -78 18 -67 33 -100
146 -65 228 20 49 40 66 93 79 53 14 103 6 141 -23z"/>
<path d="M5420 1088 c-61 -32 -90 -88 -90 -176 0 -121 69 -192 187 -192 47 0
68 5 96 24 l36 25 3 -22 c2 -12 11 -23 21 -25 15 -3 17 7 17 102 l0 106 -90 0
c-73 0 -90 -3 -90 -15 0 -12 14 -15 70 -15 68 0 70 -1 70 -25 0 -48 -27 -95
-64 -110 -76 -32 -156 -9 -196 57 -26 43 -27 139 -2 188 43 87 216 97 254 15
10 -23 48 -36 48 -17 0 21 -42 71 -73 85 -52 25 -143 22 -197 -5z"/>
<path d="M5960 915 l0 -195 135 0 c112 0 135 2 135 15 0 12 -22 15 -117 17
l-118 3 -3 78 -3 77 111 0 c90 0 110 3 110 15 0 11 -21 15 -107 17 l-108 3 -3
68 -3 67 116 0 c96 0 115 3 115 15 0 13 -21 15 -130 15 l-130 0 0 -195z"/>
<path d="M6370 1103 c-36 -13 -60 -47 -60 -85 0 -53 24 -72 123 -103 94 -28
117 -47 117 -93 0 -45 -39 -72 -106 -72 -42 0 -59 5 -83 26 -17 14 -31 32 -31
40 0 8 -9 14 -20 14 -26 0 -25 -20 1 -54 31 -39 71 -56 134 -56 61 0 105 18
129 52 16 23 21 73 10 102 -10 25 -64 53 -137 72 -47 11 -73 24 -87 42 -26 32
-25 38 5 67 40 41 156 30 170 -17 7 -20 45 -25 45 -5 0 19 -37 56 -67 68 -26
10 -118 11 -143 2z"/>
<path d="M1118 960 c4 -104 3 -110 -14 -104 -18 5 -18 5 -1 -6 9 -6 15 -15 12
-20 -6 -10 32 -38 94 -70 51 -26 123 -24 165 4 24 15 160 206 152 213 -2 2
-19 -4 -39 -12 -67 -28 -101 -21 -269 59 -53 25 -98 46 -100 46 -2 0 -2 -50 0
-110z"/>
<path d="M1538 545 l3 -185 -33 -21 c-50 -31 -123 -22 -228 31 -47 23 -101 48
-120 55 -34 12 -36 12 -35 -11 1 -13 5 -27 8 -31 4 -3 7 -48 7 -100 0 -80 -2
-93 -17 -93 -22 0 -11 -10 17 -15 13 -3 26 -9 30 -15 4 -6 30 -20 60 -31 62
-23 125 -18 166 13 22 18 144 189 144 203 0 3 53 85 118 183 65 97 122 183
126 190 6 9 -21 12 -121 12 l-128 0 3 -185z"/>
<path d="M385 487 c-8 -32 -2 -353 7 -362 4 -4 18 -5 31 -1 18 4 51 46 117
146 51 78 91 143 88 145 -10 10 -179 84 -206 90 -27 6 -32 3 -37 -18z"/>
</g>
</svg>
