<?xml version="1.0" standalone="no"?>
<!DOCTYPE svg PUBLIC "-//W3C//DTD SVG 20010904//EN"
 "http://www.w3.org/TR/2001/REC-SVG-20010904/DTD/svg10.dtd">
<svg version="1.0" xmlns="http://www.w3.org/2000/svg"
 width="2161.000000pt" height="971.000000pt" viewBox="0 0 2161.000000 971.000000"
 preserveAspectRatio="xMidYMid meet">

<g transform="translate(0.000000,971.000000) scale(0.100000,-0.100000)"
fill="#000000" stroke="none">
<path d="M6740 9691 c0 -5 -47 -395 -105 -867 -58 -473 -105 -869 -105 -881
l0 -23 819 0 819 0 6 28 c3 15 31 173 61 352 31 179 58 334 61 345 12 38 57
87 98 106 47 21 89 24 135 8 43 -15 1709 -1450 1739 -1497 32 -52 28 -145 -10
-194 -19 -25 -318 -212 -1100 -688 -590 -360 -1089 -658 -1108 -664 -67 -17
-147 14 -192 75 -41 55 -40 82 18 413 29 171 54 319 54 329 0 16 -44 17 -785
17 l-785 0 -5 -22 c-6 -30 -535 -4367 -535 -4390 0 -17 36 -18 620 -18 l619 0
6 32 c3 18 75 602 160 1298 85 696 156 1272 158 1280 2 13 91 16 707 21 767 6
824 10 1120 69 258 52 432 110 655 221 279 137 474 277 686 488 444 445 718
1037 794 1715 25 226 18 556 -16 756 -90 525 -374 966 -810 1259 -372 250
-772 383 -1304 431 -139 13 -2475 14 -2475 1z"/>
<path d="M2568 9070 c-383 -29 -680 -102 -964 -239 -410 -198 -667 -419 -910
-782 -186 -279 -322 -645 -363 -979 -16 -123 -13 -381 4 -517 56 -429 247
-881 538 -1269 43 -57 81 -104 85 -104 6 0 627 498 774 621 l47 39 -51 83
c-228 366 -289 818 -163 1203 109 332 331 583 624 705 335 139 803 124 1123
-37 245 -123 416 -326 492 -583 64 -217 70 -506 15 -776 -84 -416 -344 -847
-889 -1475 -516 -594 -1370 -1426 -2713 -2643 l-217 -197 2400 0 2399 0 6 33
c3 17 34 268 70 557 36 289 67 537 70 553 l5 27 -1062 0 -1061 0 334 338 c870
879 1342 1465 1625 2017 240 466 334 869 334 1427 0 307 -25 489 -96 708 -86
262 -220 477 -423 680 -159 158 -272 242 -462 339 -273 141 -527 215 -874 256
-157 19 -536 27 -697 15z"/>
<path d="M13235 6708 c-340 -38 -675 -161 -970 -355 -159 -105 -257 -184 -389
-312 -405 -395 -660 -884 -757 -1452 -30 -179 -37 -541 -15 -739 55 -474 212
-856 488 -1185 271 -324 652 -538 1098 -617 111 -19 483 -16 635 6 513 74 978
296 1345 642 39 37 72 65 74 63 1 -2 -14 -141 -35 -309 -21 -168 -38 -311 -38
-317 -1 -10 121 -13 579 -13 l580 0 4 22 c7 29 526 4348 526 4371 0 16 -34 17
-533 17 l-533 0 -78 -297 c-43 -164 -81 -302 -83 -306 -3 -5 -23 20 -45 55
-107 168 -279 351 -423 448 -99 67 -263 149 -379 189 -107 38 -292 76 -435 91
-122 12 -502 11 -616 -2z m743 -944 c488 -72 881 -407 994 -847 l21 -82 -56
-475 -57 -475 -59 -120 c-139 -283 -358 -508 -630 -648 -211 -109 -374 -150
-601 -150 -170 0 -289 18 -437 68 -523 175 -832 612 -860 1215 -12 264 70 597
203 820 196 328 499 565 849 661 175 48 441 62 633 33z"/>
<path d="M16620 6525 c0 -4 1484 -4141 1507 -4200 2 -6 -291 -528 -652 -1159
-360 -632 -655 -1151 -655 -1153 0 -2 257 -2 571 -1 l572 3 1814 3245 c998
1785 1817 3251 1820 3258 4 9 -106 12 -529 12 l-534 0 -817 -1433 c-449 -789
-823 -1442 -831 -1452 -12 -16 -20 2 -74 166 -99 300 -882 2708 -882 2714 0 3
-295 5 -655 5 -360 0 -655 -2 -655 -5z"/>
</g>
</svg>
