<svg xmlns="http://www.w3.org/2000/svg" xmlns:xlink="http://www.w3.org/1999/xlink" version="1.1" x="0px" y="0px" viewBox="0 0 100 125" enable-background="new 0 0 100 100" xml:space="preserve"><g><path d="M47.241,41.873c0,0,2.748-2.476,4.989,0.119l0.126,0.025c0,0,0.024-2.556,1.04-3.456c0,0,0.452-0.544,0.734-0.591   c0,0-6.414-0.709-8.424,0.283C45.707,38.252,47.233,40.568,47.241,41.873z"/><path d="M68.412,37.58c-0.345,0-0.627-0.277-0.631-0.623l-0.063-5.987c-4.253-1.392-8.783-2.254-13.48-2.566   c-3.89-0.258-7.901-0.143-11.921,0.342c-5.656,0.686-9.734,1.916-11.001,2.332v5.705c0,0.35-0.284,0.632-0.633,0.632   c-0.349,0-0.63-0.282-0.63-0.632v-6.156c0-0.267,0.166-0.505,0.415-0.591c0.189-0.071,4.717-1.698,11.699-2.544   c4.099-0.496,8.189-0.61,12.155-0.349c4.963,0.33,9.749,1.262,14.223,2.769c0.254,0.088,0.429,0.326,0.433,0.595l0.067,6.435   c0.004,0.35-0.273,0.635-0.623,0.639C68.416,37.58,68.416,37.58,68.412,37.58z"/><g><path d="M33.06,35.407c-0.162,0-0.294-0.131-0.294-0.293v-1.473c0-0.13,0.084-0.242,0.207-0.281    c0.02-0.008,0.52-0.163,1.437-0.393c0.158-0.04,0.319,0.055,0.358,0.214c0.04,0.158-0.058,0.317-0.214,0.357    c-0.565,0.142-0.973,0.258-1.199,0.321v1.255C33.355,35.275,33.223,35.407,33.06,35.407z"/><path d="M37.182,32.947c-0.139,0-0.261-0.1-0.29-0.238c-0.032-0.163,0.071-0.318,0.232-0.35c0.893-0.175,1.813-0.337,2.738-0.479    c0.16-0.023,0.312,0.087,0.337,0.25c0.024,0.159-0.087,0.309-0.248,0.334c-0.917,0.142-1.829,0.301-2.712,0.476    C37.22,32.943,37.2,32.947,37.182,32.947z M61.926,32.835c-0.02,0-0.039,0-0.06-0.004c-0.89-0.183-1.801-0.345-2.709-0.483    c-0.163-0.023-0.274-0.175-0.246-0.333c0.023-0.163,0.171-0.274,0.333-0.247c0.921,0.14,1.841,0.302,2.736,0.485    c0.163,0.032,0.262,0.186,0.23,0.349C62.184,32.741,62.062,32.835,61.926,32.835z M42.649,32.106    c-0.147,0-0.276-0.116-0.292-0.267c-0.018-0.158,0.097-0.305,0.26-0.325c0.917-0.1,1.849-0.187,2.767-0.25    c0.163-0.013,0.304,0.11,0.315,0.269c0.012,0.163-0.111,0.305-0.274,0.318c-0.91,0.063-1.833,0.146-2.742,0.25    C42.671,32.102,42.661,32.106,42.649,32.106z M56.459,32.002c-0.013,0-0.023,0-0.031,0c-0.904-0.09-1.826-0.167-2.746-0.218    c-0.163-0.008-0.285-0.151-0.277-0.313c0.012-0.159,0.151-0.285,0.313-0.274c0.924,0.052,1.857,0.127,2.77,0.218    c0.161,0.017,0.28,0.163,0.261,0.326C56.732,31.892,56.606,32.002,56.459,32.002z M48.167,31.713    c-0.158,0-0.289-0.127-0.293-0.285c-0.004-0.163,0.124-0.298,0.286-0.306c0.65-0.02,1.309-0.027,1.954-0.027    c0.273,0,0.55,0,0.825,0.004c0.162,0.004,0.294,0.135,0.291,0.302c-0.001,0.158-0.134,0.289-0.295,0.289c0,0-0.002,0-0.005,0    c-0.273-0.004-0.544-0.004-0.816-0.004c-0.641,0-1.291,0.008-1.936,0.027C48.173,31.713,48.171,31.713,48.167,31.713z"/><path d="M66.063,35.323c-0.161,0-0.293-0.13-0.298-0.293l-0.015-1.254c-0.396-0.115-0.802-0.222-1.202-0.326    c-0.159-0.043-0.254-0.202-0.211-0.36c0.04-0.159,0.199-0.25,0.356-0.212c0.481,0.124,0.961,0.255,1.429,0.393    c0.127,0.037,0.214,0.147,0.214,0.279l0.02,1.472c0,0.162-0.13,0.297-0.289,0.301C66.063,35.323,66.063,35.323,66.063,35.323z"/></g><path d="M53.8,38.036c-2.273,1.493-1.59,5.745-1.59,5.745c0.686,6.451,4.717,7.185,4.717,7.185   c2.321,0.706,8.606,0.272,8.606,0.272c0.457-0.062,0.872-0.189,1.249-0.362c-0.381,1.936-2.364,8.625-2.942,10.563l-1.867-1.571   l-2.666-5.844l-3.193-0.703l-1.772-2.392l-2.129,0.005l-0.104,0.348l-2.366,0.595l-2.199-1.308l-2.126,0.004l-1.768,2.391   l-3.188,0.715l-2.648,5.852l-1.88,1.662c-0.65-2.031-2.58-8.18-2.75-10.158c0.232,0.072,0.476,0.128,0.734,0.165   c0,0,6.28,0.432,8.603-0.278c0,0,4.032-0.733,4.717-7.184c0,0,0.684-4.25-1.589-5.74c0,0-3.742-3.521-18.845-0.147l0.147,3.347   c0,0,1.736,0.243,2.079,2.615c0.012,0.079,0.022,0.153,0.032,0.222c0.059,0.753,0.478,4.688,2.922,6.408   c0.466,1.556,2.413,8.104,2.934,10.449l-0.027-0.023l0.064,0.196c0.012,0.056,0.023,0.11,0.033,0.159l0.024,0.014l0.948,2.903   l4.594,6.173c2.234,1.54,9.098,2.385,9.098,2.385c5.882-0.163,12.769-7.015,14.06-8.347l0.051-0.049l1.217-2.837   c-0.198-1.384,2.521-9.932,2.993-11.399c1.947-1.825,2.339-5.135,2.406-5.936c0.014-0.085,0.026-0.177,0.041-0.279   c0.342-2.368,2.074-2.613,2.074-2.613l0.147-3.349C57.537,34.517,53.8,38.036,53.8,38.036z M52.896,63.432l1.365-4.29   c-7.547,1.21-8.579-0.329-8.579-0.329l-0.686,0.171l1.037,4.805c-1.373-0.151-5.735-2.333-6.681-2.812l0.411-0.381l0.789-4.432   l8.044-0.742c0.575,0,2.208,0.122,2.208,0.122l8.416,0.961l0.806,4.427l0.194,0.183C57.815,62.931,52.896,63.432,52.896,63.432z"/><path d="M56.296,57.929c-0.008,0-0.016,0-0.023,0c-4.308-0.517-4.564-0.48-5.524-0.338c-0.841,0.127-2.25,0.338-7.252,0.338   c-0.117,0-0.21-0.095-0.21-0.211c0-0.115,0.093-0.21,0.21-0.21c4.971,0,6.361-0.206,7.191-0.328   c1.003-0.151,1.272-0.192,5.633,0.328c0.115,0.016,0.198,0.118,0.187,0.233C56.491,57.85,56.404,57.929,56.296,57.929z"/><path d="M30.387,36.641c-0.119,0-0.239-0.02-0.355-0.068c-0.083-0.027-2.048-0.769-4.118-1.682   c-4.147-1.826-4.758-2.57-5.006-3.126l0,0c-0.109-0.246-0.454-1.206,0.23-2.364c1.718-2.908,8.553-4.555,20.32-4.904   c0.345-0.023,4.375-0.309,9.48-0.356c7.151-0.064,12.904,0.34,17.099,1.205c0.197,0.036,2.213,0.409,4.384,1.061   c2.083,0.625,4.941,1.654,5.688,3.323c0.297,0.667,0.245,1.385-0.14,2.031c-0.122,0.222-0.643,1.071-1.912,2.02   c-1.777,1.329-4.185,2.262-7.156,2.778c-0.548,0.094-0.986-0.302-1.081-0.854c-0.096-0.548,0.188-1.043,0.735-1.139   c5.948-1.03,7.55-3.62,7.638-3.769c0.016-0.032,0.02-0.036,0.038-0.067c0.064-0.103,0.053-0.126,0.033-0.175   c-0.075-0.169-0.646-1.075-4.412-2.209c-2.126-0.639-4.169-1.012-4.188-1.016c-0.01,0-0.016,0-0.023-0.004   c-9.698-2-25.893-0.825-26.056-0.813c-0.014,0-0.029,0.004-0.045,0.004c-14.688,0.432-17.9,2.812-18.6,3.816   c-0.205,0.294-0.205,0.497-0.192,0.576c0.148,0.155,0.898,0.79,4.193,2.226c1.944,0.849,3.785,1.543,3.803,1.551   c0.523,0.194,0.683,0.782,0.487,1.306C31.075,36.394,30.795,36.641,30.387,36.641z"/><path d="M70.078,16.979c-0.004-0.226-0.122-0.436-0.314-0.554c-4.541-2.857-9.496-4.655-14.734-5.344   c-4.18-0.548-8.544-0.397-12.969,0.452c-7.53,1.444-12.562,4.368-12.772,4.496c-0.202,0.114-0.328,0.329-0.333,0.562l-0.226,9.578   c-0.008,0.372,0.286,0.682,0.659,0.689c0.371,0.008,0.681-0.286,0.69-0.658l0.01-0.418c0.126,0.071,0.277,0.104,0.433,0.081   c0.052-0.008,5.306-0.782,12.548-1.142c12.098-0.603,20.314,0.392,25.079,1.333c0.043,0.008,0.087,0.012,0.131,0.012   c0.307,0,0.583-0.213,0.653-0.524l0.029,1.238c0.008,0.369,0.306,0.659,0.67,0.659c0.008,0,0.012,0,0.016,0   c0.373-0.008,0.666-0.317,0.658-0.69L70.078,16.979z M68.408,24.73C59.641,22.997,49.752,23.036,43,23.374   c-7.307,0.365-12.627,1.146-12.679,1.154c-0.074,0.012-0.143,0.034-0.206,0.067l0.178-7.588c1.216-0.654,5.772-2.956,12.021-4.154   c4.283-0.82,8.504-0.967,12.542-0.437c4.924,0.651,9.592,2.317,13.885,4.956l0.182,7.837C68.857,24.972,68.665,24.781,68.408,24.73   z"/><g><path d="M68.836,25.302c-0.039,0-0.082-0.004-0.122-0.012c-5.233-0.98-11.295-1.479-18.012-1.479    c-11.185,0-20.421,1.404-20.514,1.417c-0.196,0.031-0.396-0.028-0.545-0.159c-0.151-0.13-0.235-0.321-0.231-0.519l0.163-7.922    c0.006-0.255,0.155-0.485,0.385-0.595c6.526-3.11,13.173-4.686,19.758-4.686c6.123,0,11.064,1.393,14.127,2.559    c3.34,1.271,5.21,2.532,5.289,2.587c0.183,0.124,0.294,0.33,0.294,0.548l0.083,7.584c0,0.199-0.088,0.393-0.243,0.524    C69.146,25.247,68.995,25.302,68.836,25.302z"/></g><path d="M55.451,34.053l0.908-0.333l0.452,0.661l0.404-0.939c0,0,5.52-1.099,9.424,1.274l-0.452,2.103c0,0-3.957-2.047-10.685-1.44   L55.451,34.053z"/><path d="M43.482,34.136l-0.915-0.333l-0.453,0.662l-0.41-0.941c0,0-5.561-1.098-9.493,1.275l0.458,2.103   c0,0,3.983-2.047,10.761-1.44L43.482,34.136z"/></g><g><path fill-rule="evenodd" clip-rule="evenodd" d="M34.48,64.177c0.083-0.006,0.166-0.014,0.248-0.026   c0.957-0.151,1.823,0.088,2.594,0.647c0.984,0.715,1.572,1.722,1.883,2.869c0.69,2.554,0.555,5.143,0.219,7.73   c-0.142,1.085-0.335,2.164-0.473,3.249c-0.153,1.212-0.194,2.44-0.417,3.637c-1.076,5.738-5.607,8.389-9.863,8.889   c-2.202,0.26-4.122-0.478-5.817-1.867c-0.128-0.104-0.31-0.185-0.473-0.199c-0.871-0.071-1.748-0.08-2.615-0.179   c-2.357-0.271-4.443-1.124-6.115-2.879c-2.717-2.852-4.637-6.168-5.877-9.896c-1-3.008-1.148-5.994,0.095-8.981   c1.092-2.621,2.853-4.532,5.625-5.393c0.72-0.224,0.725-0.216,0.582-0.959c-0.542-2.82-1.274-5.593-2.179-8.314   c-0.793-2.386-1.294-4.787-0.859-7.315c0.162-0.943,0.474-1.79,1.186-2.458c1.911-1.798,5.329-1.632,7.051,0.354   c1.098,1.264,1.678,2.791,2.183,4.354c1.098,3.401,1.312,6.936,1.587,10.463c0.072,0.934,0.138,1.869,0.206,2.803   c0.046,0,0.064,0.005,0.069-0.002c0.09-0.104,0.18-0.207,0.268-0.313c0.609-0.733,1.361-1.257,2.268-1.56   c2.366-0.791,4.986,0.024,6.691,2.078c0.806,0.972,1.374,2.074,1.795,3.25C34.4,64.166,34.44,64.178,34.48,64.177z M15.133,69.145   c-0.13-1.128-0.216-2.261-0.323-3.393c-0.064-0.662-0.111-1.327-0.216-1.982c-0.141-0.871-0.526-1.071-1.344-0.747   c-2.182,0.865-3.527,2.517-4.394,4.638c-1.013,2.479-0.985,4.978-0.234,7.506c1.083,3.651,2.906,6.883,5.44,9.73   c1.516,1.704,3.403,2.646,5.635,2.923c4.686,0.58,9.107-0.272,13.265-2.505c1.769-0.951,2.905-2.465,3.729-4.236   c1.156-2.483,1.687-5.122,1.861-7.844c0.103-1.6,0.071-3.191-0.254-4.768c-0.174-0.841-0.502-1.616-1.061-2.275   c-0.658-0.777-1.481-1.135-2.521-0.948c0.088,0.702,0.25,1.384,0.243,2.064c-0.012,1.03,0.177,1.972,0.74,2.847   c0.181,0.279,0.368,0.619,0.165,1.101c-0.134-0.176-0.241-0.275-0.296-0.397c-0.593-1.297-1.508-2.246-2.882-2.713   c-0.136-0.046-0.255-0.141-0.382-0.213c0.006-0.054,0.012-0.107,0.019-0.16c0.24,0,0.486-0.031,0.72,0.008   c0.243,0.041,0.479,0.14,0.71,0.233c0.292,0.116,0.422-0.015,0.456-0.284c0.019-0.149,0.03-0.312-0.004-0.456   c-0.533-2.232-1.39-4.304-3.095-5.919c-1.259-1.191-2.764-1.594-4.46-1.278c-1.154,0.215-1.979,0.907-2.587,1.874   c-0.81,1.285-1.184,2.727-1.328,4.213c-0.126,1.296-0.126,2.604-0.179,3.906c-0.006,0.158-0.001,0.315-0.001,0.474   c-0.044,0.008-0.088,0.016-0.132,0.023c-0.098-0.274-0.207-0.547-0.292-0.824c-0.717-2.346-0.8-4.721-0.321-7.118   c0.37-1.852,0.279-3.701,0.052-5.556c-0.334-2.726-0.781-5.432-1.479-8.093c-0.377-1.438-0.809-2.855-1.678-4.09   c-0.579-0.821-1.274-1.497-2.301-1.743c-1.427-0.337-3.074,0.507-3.602,1.879c-0.423,1.1-0.454,2.248-0.39,3.409   c0.108,1.967,0.675,3.849,1.079,5.762c0.664,3.149,1.322,6.301,1.898,9.468c0.187,1.026,0.088,2.103,0.158,3.153   c0.051,0.756,0.146,1.511,0.264,2.259c0.066,0.417,0.087,0.465-0.34,0.848C15.337,69.627,15.162,69.395,15.133,69.145z    M28.12,90.198c4.598-0.152,8.523-3.474,9.424-7.978c0.029-0.146,0.057-0.293,0.04-0.457c-0.208,0.368-0.414,0.737-0.625,1.105   c-1.221,2.125-3.134,3.396-5.331,4.319c-2.291,0.963-4.673,1.564-7.145,1.821c-0.062,0.006-0.124,0.014-0.279,0.032   C25.452,89.843,26.718,90.245,28.12,90.198z"/><path fill-rule="evenodd" clip-rule="evenodd" d="M19.107,79.179c0.216,0.623,0.356,1.287,0.664,1.859   c0.675,1.253,1.434,2.462,2.168,3.684c0.074,0.124,0.2,0.244,0.33,0.303c0.122,0.055,0.283,0.024,0.426,0.029   c-0.016-0.12,0.002-0.26-0.053-0.359c-0.617-1.12-0.751-2.361-0.938-3.594c-0.093-0.612-0.247-1.219-0.419-1.815   c-0.079-0.271-0.237-0.533-0.413-0.758c-0.31-0.398-0.713-0.516-1.099-0.376C19.362,78.301,19.194,78.592,19.107,79.179z"/><path fill-rule="evenodd" clip-rule="evenodd" d="M22.995,79.536c0.135,0.506,0.208,1.04,0.418,1.513   c0.447,1.01,0.949,1.997,1.469,2.974c0.112,0.209,0.395,0.327,0.599,0.489c-0.004-0.231,0.009-0.466-0.016-0.694   c-0.073-0.686-0.172-1.369-0.239-2.057c-0.072-0.728-0.098-1.462-0.188-2.188c-0.031-0.25-0.169-0.498-0.307-0.718   c-0.199-0.315-0.475-0.559-0.889-0.498c-0.394,0.059-0.676,0.379-0.764,0.833c-0.02,0.108-0.023,0.22-0.035,0.33   C23.027,79.526,23.011,79.531,22.995,79.536z"/><path fill-rule="evenodd" clip-rule="evenodd" d="M19.215,84.652c-0.028-0.148-0.032-0.307-0.087-0.443   c-0.359-0.882-0.718-1.764-1.104-2.633c-0.202-0.452-0.434-0.896-0.704-1.311c-0.2-0.306-0.493-0.552-0.912-0.374   c-0.331,0.141-0.475,0.487-0.356,0.963c0.079,0.316,0.183,0.657,0.375,0.912c0.655,0.87,1.345,1.713,2.045,2.548   c0.15,0.179,0.398,0.274,0.601,0.408C19.121,84.699,19.168,84.676,19.215,84.652z"/></g><g><path fill-rule="evenodd" clip-rule="evenodd" d="M66.775,62.545c0.613-1.119,1.359-2.14,2.326-2.99   c2.045-1.799,4.816-2.205,7.075-1.031c0.864,0.449,1.54,1.096,2.038,1.932c0.07,0.121,0.145,0.24,0.219,0.358   c0.005,0.009,0.024,0.006,0.07,0.014c0.217-0.929,0.431-1.862,0.653-2.792c0.835-3.512,1.613-7.04,3.261-10.293   c0.757-1.495,1.586-2.942,2.893-4.042c2.051-1.728,5.522-1.352,7.163,0.764c0.61,0.788,0.791,1.691,0.806,2.667   c0.036,2.616-0.852,4.956-2.03,7.235c-1.345,2.601-2.522,5.277-3.517,8.034c-0.263,0.728-0.258,0.719,0.434,1.059   c2.655,1.308,4.127,3.513,4.812,6.33c0.778,3.207,0.154,6.194-1.332,9.066c-1.843,3.561-4.304,6.599-7.495,9.04   c-1.965,1.502-4.202,2.031-6.622,1.929c-0.89-0.037-1.774-0.168-2.664-0.234c-0.166-0.013-0.363,0.04-0.508,0.125   c-1.931,1.13-3.982,1.568-6.16,0.958c-4.21-1.182-8.356-4.572-8.528-10.526c-0.036-1.241,0.12-2.486,0.156-3.73   c0.034-1.117,0.01-2.235,0.04-3.352c0.072-2.662,0.347-5.291,1.449-7.757c0.495-1.107,1.248-2.028,2.354-2.592   c0.866-0.442,1.777-0.545,2.717-0.241c0.082,0.026,0.165,0.048,0.247,0.066C66.671,62.549,66.713,62.543,66.775,62.545z    M84.88,71.35c-0.371-0.453-0.342-0.499-0.209-0.907c0.237-0.736,0.453-1.481,0.625-2.235c0.238-1.049,0.309-2.148,0.661-3.154   c1.083-3.1,2.247-6.172,3.416-9.24c0.711-1.864,1.583-3.67,2.005-5.637c0.248-1.158,0.399-2.32,0.148-3.497   c-0.313-1.466-1.84-2.581-3.331-2.465c-1.074,0.083-1.882,0.653-2.596,1.391c-1.072,1.105-1.733,2.466-2.343,3.855   c-1.125,2.57-2.006,5.227-2.775,7.922c-0.524,1.832-0.911,3.683-0.832,5.606c0.103,2.492-0.358,4.874-1.454,7.124   c-0.131,0.267-0.283,0.522-0.426,0.784c-0.044-0.016-0.087-0.03-0.131-0.045c0.026-0.158,0.057-0.317,0.075-0.477   c0.152-1.322,0.361-2.64,0.44-3.967c0.091-1.521-0.058-3.033-0.669-4.458c-0.46-1.07-1.18-1.899-2.311-2.298   c-1.659-0.588-3.24-0.422-4.698,0.579c-1.977,1.356-3.169,3.308-4.061,5.474c-0.058,0.141-0.071,0.305-0.076,0.46   c-0.008,0.275,0.101,0.43,0.415,0.357c0.247-0.057,0.501-0.118,0.752-0.121c0.241-0.003,0.484,0.067,0.728,0.105   c-0.003,0.055-0.004,0.11-0.007,0.164c-0.139,0.054-0.274,0.13-0.419,0.155c-1.46,0.252-2.53,1.062-3.336,2.275   c-0.075,0.114-0.199,0.197-0.361,0.354c-0.129-0.518,0.112-0.83,0.34-1.084c0.707-0.792,1.046-1.71,1.198-2.75   c0.102-0.688,0.373-1.349,0.573-2.044c-1.019-0.351-1.905-0.123-2.692,0.556c-0.666,0.577-1.121,1.307-1.43,2.125   c-0.58,1.536-0.863,3.137-1.015,4.765c-0.256,2.771-0.141,5.514,0.63,8.201c0.55,1.917,1.454,3.623,3.086,4.862   c3.835,2.912,8.156,4.473,12.972,4.635c2.293,0.074,4.346-0.576,6.145-2.052c3.005-2.466,5.357-5.434,7.028-8.943   c1.158-2.429,1.584-4.943,0.957-7.602c-0.536-2.276-1.63-4.153-3.691-5.372c-0.772-0.457-1.193-0.317-1.473,0.539   c-0.212,0.644-0.364,1.308-0.534,1.965c-0.287,1.122-0.555,2.25-0.865,3.367C85.271,70.87,85.059,71.076,84.88,71.35z    M73.036,89.235c-0.152-0.043-0.214-0.061-0.276-0.077c-2.45-0.65-4.755-1.637-6.912-2.972c-2.066-1.279-3.793-2.863-4.686-5.2   c-0.155-0.404-0.304-0.809-0.454-1.212c-0.042,0.161-0.038,0.313-0.033,0.467c0.191,4.682,3.62,8.652,8.229,9.538   C70.311,90.049,71.651,89.844,73.036,89.235z"/><path fill-rule="evenodd" clip-rule="evenodd" d="M79.74,80.104c-0.316,0.594-0.562,1.24-0.965,1.769   c-0.88,1.155-1.837,2.253-2.77,3.368c-0.096,0.114-0.24,0.215-0.381,0.253c-0.133,0.036-0.289-0.021-0.436-0.038   c0.036-0.118,0.04-0.263,0.11-0.354c0.801-1.03,1.133-2.261,1.518-3.472c0.191-0.604,0.443-1.19,0.713-1.764   c0.121-0.262,0.323-0.499,0.536-0.699c0.374-0.352,0.8-0.404,1.165-0.203C79.623,79.179,79.745,79.5,79.74,80.104z"/><path fill-rule="evenodd" clip-rule="evenodd" d="M75.766,79.847c-0.217,0.488-0.376,1.015-0.663,1.458   c-0.61,0.948-1.272,1.862-1.952,2.764c-0.146,0.193-0.451,0.269-0.681,0.398c0.041-0.232,0.064-0.471,0.126-0.698   c0.183-0.679,0.392-1.352,0.567-2.032c0.188-0.725,0.331-1.459,0.538-2.176c0.07-0.246,0.249-0.477,0.423-0.675   c0.25-0.286,0.567-0.487,0.975-0.361c0.387,0.121,0.621,0.489,0.638,0.961c0.004,0.113-0.011,0.225-0.017,0.338   C75.735,79.831,75.749,79.84,75.766,79.847z"/><path fill-rule="evenodd" clip-rule="evenodd" d="M78.762,85.604c0.051-0.145,0.08-0.304,0.157-0.433   c0.503-0.83,1.004-1.663,1.532-2.479c0.274-0.423,0.579-0.834,0.917-1.208c0.25-0.277,0.585-0.479,0.979-0.233   c0.312,0.194,0.401,0.566,0.206,1.028c-0.13,0.306-0.289,0.633-0.523,0.859c-0.799,0.772-1.629,1.514-2.466,2.243   c-0.181,0.156-0.445,0.212-0.672,0.314C78.85,85.665,78.805,85.635,78.762,85.604z"/></g><text x="0" y="115" fill="#000000" font-size="5px" font-weight="bold" font-family="'Helvetica Neue', Helvetica, Arial-Unicode, Arial, Sans-serif">Created by MARKBUFALO</text><text x="0" y="120" fill="#000000" font-size="5px" font-weight="bold" font-family="'Helvetica Neue', Helvetica, Arial-Unicode, Arial, Sans-serif">from the Noun Project</text></svg>