<svg width="24" height="24" viewBox="0 0 24 24" fill="none" xmlns="http://www.w3.org/2000/svg">
<path opacity="0.4" d="M16.9841 2H7C4.25397 2 2 4.25397 2 7.01587V17C2 19.746 4.25397 22 7 22H16.9841C19.746 22 22 19.746 22 16.9841V7.01587C22 4.25397 19.746 2 16.9841 2Z" fill="#637381"/>
<path fill-rule="evenodd" clip-rule="evenodd" d="M14.254 18.1905C16.4286 18.1905 18.2064 16.4445 18.2223 14.2858V11.127L18.1905 10.9683L18.0794 10.7461L17.9048 10.6032C17.8005 10.5267 17.5196 10.5203 17.2101 10.5132C16.813 10.5041 16.3689 10.4939 16.1905 10.3334C15.9837 10.1413 15.9419 9.81166 15.8858 9.3701C15.8817 9.33731 15.8775 9.3039 15.8731 9.26989C15.7801 8.45979 15.6982 8.29413 15.5903 8.07571C15.5693 8.03306 15.5472 7.98841 15.5239 7.93655C14.9842 6.77782 13.4921 5.80957 12.4762 5.80957H9.71433C7.53973 5.80957 5.80957 7.53973 5.80957 9.69846V14.3016C5.80957 16.4604 7.53973 18.1905 9.71433 18.1905H14.254ZM9.7619 8.98413H11.9524C12.381 8.98413 12.7143 9.28572 12.7143 9.69842C12.7143 10.1111 12.3651 10.4127 11.9524 10.4127H9.7619C9.34921 10.4127 9 10.1111 9 9.69842C9 9.28572 9.34921 8.98413 9.7619 8.98413ZM9.7619 13.4286H14.2222C14.6349 13.4286 14.9683 13.8095 14.9683 14.2222C14.9683 14.6349 14.6349 15.0159 14.2222 15.0159H9.7619C9.33333 15.0159 9 14.6349 9 14.2222C9 13.8095 9.34921 13.4286 9.7619 13.4286Z" fill="#637381"/>
</svg>
