<svg width="24" height="24" viewBox="0 0 24 24" fill="none" xmlns="http://www.w3.org/2000/svg">
<path d="M17.5505 10.5941C17.6091 10.0083 17.1491 9.5 16.5604 9.5C16.0492 9.5 15.6212 9.88735 15.5703 10.3961L15.2694 13.4059C15.2108 13.9917 15.6708 14.5 16.2595 14.5C16.7707 14.5 17.1987 14.1126 17.2496 13.6039L17.5505 10.5941Z" fill="#637381"/>
<path d="M12.7496 10.3961C12.6987 9.88735 12.2707 9.5 11.7595 9.5C11.1708 9.5 10.7108 10.0083 10.7694 10.5941L11.0703 13.6039C11.1212 14.1126 11.5492 14.5 12.0604 14.5C12.6491 14.5 13.1091 13.9917 13.0505 13.4059L12.7496 10.3961Z" fill="#637381"/>
<path d="M16.6602 19C16.6602 20.6569 18.0033 22 19.6602 22C21.317 22 22.6602 20.6569 22.6602 19C22.6602 17.3432 21.317 16 19.6602 16C18.0033 16 16.6602 17.3432 16.6602 19Z" fill="#637381"/>
<path d="M6.16016 19C6.16016 20.6569 7.50331 22 9.16016 22C10.817 22 12.1602 20.6569 12.1602 19C12.1602 17.3432 10.817 16 9.16016 16C7.50331 16 6.16016 17.3432 6.16016 19Z" fill="#637381"/>
<path opacity="0.4" d="M3.41016 2.00012C2.71981 2.00012 2.16016 2.55977 2.16016 3.25012C2.16016 3.94048 2.71981 4.50012 3.41016 4.50012H4.25251C4.48986 4.50012 4.69436 4.66605 4.74281 4.89837C4.96591 5.96777 5.59766 8.95907 6.10461 11.0001C6.73135 13.5236 7.29935 15.342 7.6574 16.4029C8.09928 16.1467 8.61259 16 9.16016 16C10.446 16 11.5429 16.809 11.9697 17.9457C12.7178 17.9791 13.5912 18.0001 14.6046 18.0001C15.462 18.0001 16.2042 17.9851 16.8452 17.9602C17.2681 16.8159 18.3689 16 19.6602 16C20.2143 16 20.7334 16.1503 21.1789 16.4123C21.5323 15.5226 22.0073 14.0331 22.4102 11.7501C22.6992 10.1123 22.8768 8.88287 22.986 7.99032C23.1201 6.89392 22.2647 6.00012 21.1602 6.00012H7.66016L7.03891 3.51505C6.81631 2.62472 6.01636 2.00012 5.09861 2.00012H3.41016Z" fill="#637381"/>
</svg>
