<?xml version="1.0" encoding="utf-8"?>
<!-- Uploaded to: SVG Repo, www.svgrepo.com, Generator: SVG Repo Mixer Tools -->
<svg width="800px" height="800px" viewBox="0 0 48 48" xmlns="http://www.w3.org/2000/svg">
  <g id="Layer_2" data-name="Layer 2">
    <g id="invisible_box" data-name="invisible box">
      <rect width="48" height="48" fill="none"/>
    </g>
    <g id="Health_Icons" data-name="Health Icons">
      <g>
        <path d="M35.8,11a3.2,3.2,0,0,0-2.2-1H32V8a2.9,2.9,0,0,0-3-3H21.9A11.7,11.7,0,0,0,14,2,12,12,0,0,0,2,14a4.1,4.1,0,0,0,.1,1.1H2V35a2.9,2.9,0,0,0,3,3H7.3a7,7,0,0,0,13.4,0h6.6a7,7,0,0,0,13.4,0H43a2.9,2.9,0,0,0,3-3V22.2Zm-2.7,3,7.3,8H32V14ZM14,6a8,8,0,1,1-8,8A8,8,0,0,1,14,6ZM6,22.9A11.9,11.9,0,0,0,14,26,12,12,0,0,0,26,14a11.8,11.8,0,0,0-1.1-5H28V32.4a7.7,7.7,0,0,0-.7,1.6H20.7A7,7,0,0,0,7.3,34H6ZM14,39a3,3,0,1,1,3-3A2.9,2.9,0,0,1,14,39Zm20,0a3,3,0,1,1,3-3A2.9,2.9,0,0,1,34,39Zm6.7-5A7,7,0,0,0,34,29a6.4,6.4,0,0,0-2,.3V26H42v8Z"/>
        <path d="M20,14a2,2,0,0,0-2-2H16V10a2,2,0,0,0-4,0v6h6A2,2,0,0,0,20,14Z"/>
      </g>
    </g>
  </g>
</svg>