<svg width="24" height="24" viewBox="0 0 24 24" fill="none" xmlns="http://www.w3.org/2000/svg">
<path opacity="0.4" d="M2.32694 4.28658C2.42248 3.46288 2.9222 2.78287 3.73187 2.60381C4.9948 2.32451 7.44275 2 12 2C16.5573 2 19.0052 2.32451 20.2682 2.60381C21.0778 2.78287 21.5775 3.46288 21.673 4.28658C21.8176 5.5322 22 7.58365 22 10C22 14.5142 19.6175 18.7382 15.6037 20.8039C14.2629 21.494 12.9543 22 12 22C11.0457 22 9.7371 21.494 8.3963 20.8039C4.38247 18.7382 2 14.5142 2 10C2 7.58365 2.18247 5.5322 2.32694 4.28658Z" fill="#637381"/>
<path fill-rule="evenodd" clip-rule="evenodd" d="M9.12105 7.7538C9.1895 6.21355 10.4582 5 12 5C13.5418 5 14.8105 6.21355 14.879 7.7538L14.9386 9.0968L15.0076 9.10265C15.8102 9.172 16.3768 9.7301 16.4377 10.5334C16.4735 11.0057 16.5 11.6444 16.5 12.5C16.5 13.3556 16.4735 13.9943 16.4377 14.4666C16.3768 15.2699 15.8102 15.828 15.0076 15.8974C14.3596 15.9534 13.3997 16 12 16C10.6003 16 9.6404 15.9534 8.9924 15.8974C8.18975 15.828 7.62325 15.2699 7.56235 14.4666C7.52655 13.9943 7.5 13.3556 7.5 12.5C7.5 11.7185 7.519 11.1179 7.54565 10.6598C7.5963 9.79025 8.19675 9.1729 9.0614 9.0959L9.12105 7.7538ZM12.8809 7.8426L12.9327 9.00755C12.6459 9.0027 12.3356 9 12 9C11.6648 9 11.3544 9.0027 11.0673 9.0075L11.1191 7.84265C11.14 7.3713 11.5283 7 12 7C12.4717 7 12.86 7.3713 12.8809 7.8426ZM13 12C13 12.4089 12.7545 12.7605 12.403 12.9155L12.4734 13.5415C12.4908 13.6961 12.4655 13.8652 12.3258 13.9338C12.2501 13.971 12.1446 14 12 14C11.8554 14 11.7499 13.971 11.6742 13.9338C11.5345 13.8652 11.5092 13.6961 11.5266 13.5415L11.597 12.9155C11.2455 12.7605 11 12.4089 11 12C11 11.4477 11.4477 11 12 11C12.5523 11 13 11.4477 13 12Z" fill="#637381"/>
</svg>
