<?xml version="1.0" ?>

<!DOCTYPE svg  PUBLIC '-//W3C//DTD SVG 1.1//EN'  'http://www.w3.org/Graphics/SVG/1.1/DTD/svg11.dtd'>

<!-- Uploaded to: SVG Repo, www.svgrepo.com, Generator: SVG Repo Mixer Tools -->
<svg fill="#000000" width="800px" height="800px" viewBox="0 0 1069 1069" style="fill-rule:evenodd;clip-rule:evenodd;stroke-linejoin:round;stroke-miterlimit:2;" version="1.1" xml:space="preserve" xmlns="http://www.w3.org/2000/svg" xmlns:serif="http://www.serif.com/" xmlns:xlink="http://www.w3.org/1999/xlink">

<rect height="1066.67" id="Television" style="fill:none;" width="1066.67" x="0.031" y="1.665"/>

<g>

<path d="M283.364,962.082l500,-0c17.247,-0 31.25,-14.003 31.25,-31.25c0,-17.248 -14.003,-31.25 -31.25,-31.25l-500,-0c-17.247,-0 -31.25,14.002 -31.25,31.25c0,17.247 14.003,31.25 31.25,31.25Zm397.097,-511.681l-51.969,-51.969c-41.032,-41.031 -107.557,-41.031 -148.589,0l-103.937,103.937c-16.626,16.625 -43.577,16.625 -60.201,0.003c-0.003,-0.003 -51.971,-51.971 -51.971,-51.971c-12.195,-12.195 -31.998,-12.195 -44.194,0c-12.195,12.196 -12.195,31.999 0,44.195l51.969,51.969c41.032,41.031 107.558,41.031 148.59,-0l103.936,-103.937c16.627,-16.625 43.578,-16.625 60.202,-0.003c0.002,0.003 51.97,51.97 51.97,51.97c12.196,12.196 31.998,12.196 44.194,0.001c12.196,-12.196 12.196,-31.999 0,-44.195Zm121.913,-40.403c18.254,0 33.073,14.82 33.073,33.074c0,18.253 -14.819,33.073 -33.073,33.073c-18.254,0 -33.073,-14.82 -33.073,-33.073c-0,-18.254 14.819,-33.074 33.073,-33.074Zm0,-107.813c18.254,0 33.073,14.82 33.073,33.073c0,18.254 -14.819,33.074 -33.073,33.074c-18.254,-0 -33.073,-14.82 -33.073,-33.074c-0,-18.253 14.819,-33.073 33.073,-33.073Z" style="fill-opacity:0.5;"/>

<path d="M981.281,305.831c-0.001,-109.306 -88.611,-197.916 -197.917,-197.916c-145.235,0 -354.765,0 -500,0c-109.306,0 -197.916,88.61 -197.917,197.916c0,101.803 0,231.532 0,333.335c0.001,109.306 88.611,197.916 197.917,197.916c145.235,-0 354.765,-0 500,-0c109.306,-0 197.916,-88.61 197.917,-197.916l-0,-333.335Zm-62.5,-0.001l-0,333.335c-0.001,74.79 -60.629,135.417 -135.417,135.417c-145.235,-0 -354.765,-0 -500,-0c-74.788,-0 -135.415,-60.627 -135.417,-135.415c0,-0.003 0,-333.335 0,-333.335c0.002,-74.79 60.629,-135.417 135.417,-135.417c145.235,0 354.765,0 500,0c74.788,0 135.416,60.627 135.417,135.415Zm-229.167,62.502c0,-30.39 -12.072,-59.534 -33.561,-81.023c-21.488,-21.489 -50.633,-33.561 -81.023,-33.561c-72.617,0 -177.382,0 -249.999,0c-30.389,0 -59.534,12.072 -81.023,33.561c-21.489,21.489 -33.561,50.633 -33.561,81.023c0,62.02 0,146.313 0,208.333c0,30.389 12.072,59.534 33.561,81.023c21.489,21.488 50.634,33.561 81.023,33.56c72.617,0 177.382,0 249.999,0c30.39,0.001 59.535,-12.072 81.023,-33.56c21.489,-21.489 33.561,-50.634 33.561,-81.023l0,-208.333Zm83.333,177.756l0,72.244c0,17.247 14.003,31.25 31.25,31.25c17.248,-0 31.25,-14.003 31.25,-31.25l0,-72.244c0,-17.247 -14.002,-31.25 -31.25,-31.25c-17.247,0 -31.25,14.003 -31.25,31.25Zm-145.833,-177.756l0,208.333c0,13.813 -5.487,27.061 -15.255,36.829c-9.767,9.767 -23.015,15.254 -36.828,15.254l-250,0c-13.814,0 -27.061,-5.487 -36.829,-15.254c-9.767,-9.768 -15.255,-23.016 -15.255,-36.829l0,-208.333c0,-13.814 5.488,-27.061 15.255,-36.829c9.768,-9.767 23.015,-15.255 36.829,-15.255l249.999,0c13.814,0 27.062,5.488 36.829,15.255c9.768,9.768 15.255,23.015 15.255,36.829Z"/>

</g>

</svg>