<svg xmlns="http://www.w3.org/2000/svg" height="48" viewBox="0 96 960 960" width="48"><path d="M80 349V176h173v60H140v113H80Zm0 627V803h60v113h113v60H80Zm627 0v-60h113V803h60v173H707Zm113-627V236H707v-60h173v173h-60ZM708 805h63v63h-63v-63Zm0-126h63v63h-63v-63Zm-63 63h63v63h-63v-63Zm-63 63h63v63h-63v-63Zm-63-63h63v63h-63v-63Zm126-126h63v63h-63v-63Zm-63 63h63v63h-63v-63Zm-63-63h63v63h-63v-63Zm252-332v252H519V284h252ZM440 616v252H188V616h252Zm0-332v252H188V284h252Zm-50 534V666H238v152h152Zm0-332V334H238v152h152Zm331 0V334H569v152h152Z"/></svg>