<?xml version="1.0" encoding="utf-8"?><!-- Uploaded to: SVG Repo, www.svgrepo.com, Generator: SVG Repo Mixer Tools -->
<svg width="800px" height="800px" viewBox="0 0 24 24" fill="none" xmlns="http://www.w3.org/2000/svg"><path fill-rule="evenodd" clip-rule="evenodd" d="M3.691 8.507c0 2.847 1.582 5.29 3.806 5.29 2.223 0 3.803-2.443 3.803-5.29 0-2.846-1.348-4.51-3.803-4.51-2.456 0-3.806 1.664-3.806 4.51zM1.326 19.192c.82.537 2.879.805 6.174.805 3.295 0 5.353-.268 6.174-.804a.5.5 0 0 0 .225-.453c-.152-2.228-2.287-3.343-6.403-3.343-4.117 0-6.249 1.115-6.395 3.344a.5.5 0 0 0 .225.451zM18 17a1 1 0 0 1-1-1v-3h-3a1 1 0 1 1 0-2h3V8a1 1 0 1 1 2 0v3h3a1 1 0 1 1 0 2h-3v3a1 1 0 0 1-1 1z" fill="#000000"/></svg>