<?xml version="1.0" encoding="utf-8"?><!-- Uploaded to: SVG Repo, www.svgrepo.com, Generator: SVG Repo Mixer Tools -->
<svg version="1.1" id="Uploaded to svgrepo.com" xmlns="http://www.w3.org/2000/svg" xmlns:xlink="http://www.w3.org/1999/xlink" 
	 width="800px" height="800px" viewBox="0 0 32 32" xml:space="preserve">
<style type="text/css">
	.bentblocks_een{fill:#0B1719;}
	.st0{fill:#0B1719;}
</style>
<path class="bentblocks_een" d="M26,10h-2.485l-6-6l-5.888,6H6c-1.1,0-2,1.4-2,2.5V26c0,1.1,0.9,2,2,2h20c1.1,0,2-0.9,2-2V12
	C28,10.9,27.1,10,26,10z M23.172,12.485L20.873,15h-0.481c-0.463-2.282-2.481-4-4.9-4c-1.115,0-2.14,0.366-2.967,0.984l4.989-5.155
	L23.172,12.485z M18.32,15h-5.643c0.411-1.163,1.513-2,2.815-2C16.796,13,17.907,13.836,18.32,15z M11.418,13.128
	c-0.386,0.552-0.663,1.187-0.802,1.872H9.607L11.418,13.128z M6,12h3.569l-2.855,3H6V12z M26,26H6v-9h20V26z M26,15h-2.298
	L26,12.485L25.515,12H26V15z"/>
</svg>