<?xml version="1.0" encoding="iso-8859-1"?>
<!-- Uploaded to: SVG Repo, www.svgrepo.com, Generator: SVG Repo Mixer Tools -->
<svg fill="#000000" height="800px" width="800px" version="1.1" id="Capa_1" xmlns="http://www.w3.org/2000/svg" xmlns:xlink="http://www.w3.org/1999/xlink" 
	 viewBox="0 0 260.951 260.951" xml:space="preserve">
<path d="M246.476,108.074V72.476h-11.433L222.835,35.54l-111.75,36.936H15.476v31.49L0,109.081l15.476,46.823v34.571h11.76
	l11.547,34.936l105.699-34.936h101.994v-33.821l14.475-4.784L246.476,108.074z M213.3,54.489l5.945,17.986h-60.363L213.3,54.489z
	 M36.476,169.631V94.206c21,0.092,37.547,16.939,37.547,37.712S57.476,169.539,36.476,169.631z M48.318,206.462l-5.284-15.986
	h53.651L48.318,206.462z M131.3,168.335l-31.325-36.794L131.3,94.746l31.325,36.794L131.3,168.335z M226.476,169.631
	c-21-0.092-37.547-16.939-37.547-37.712s16.547-37.62,37.547-37.712V169.631z"/>
</svg>