<svg xmlns="http://www.w3.org/2000/svg" width="1em" height="1em" viewBox="0 0 24 24"><path fill="currentColor" d="M15 16.69V13h1.5v2.82l2.44 1.41l-.75 1.3zM19.5 3.5L18 2l-1.5 1.5L15 2l-1.5 1.5L12 2l-1.5 1.5L9 2L7.5 3.5L6 2L4.5 3.5L3 2v20l1.5-1.5L6 22l1.5-1.5L9 22l1.58-1.58c.14.19.3.36.47.53A7.001 7.001 0 0 0 21 11.1V2zM11.1 11c-.6.57-1.07 1.25-1.43 2H6v-2zm-2.03 4c-.07.33-.07.66-.07 1s0 .67.07 1H6v-2zM18 9H6V7h12zm2.85 7c0 .64-.12 1.27-.35 1.86c-.26.58-.62 1.14-1.07 1.57c-.43.45-.99.81-1.57 1.07c-.59.23-1.22.35-1.86.35c-2.68 0-4.85-2.17-4.85-4.85c0-1.29.51-2.5 1.42-3.43c.93-.91 2.14-1.42 3.43-1.42c2.67 0 4.85 2.17 4.85 4.85"/></svg>