<svg xmlns="http://www.w3.org/2000/svg" version="1.1" xmlns:xlink="http://www.w3.org/1999/xlink" xmlns:svgjs="http://svgjs.dev/svgjs" width="1500" height="1500" viewBox="0 0 1500 1500"><rect width="1500" height="1500" fill="#000000"></rect><g transform="matrix(0.6666666666666666,0,0,0.6666666666666666,249.50000000000006,249.5003557477658)"><svg viewBox="0 0 280 280" data-background-color="#ffffff" preserveAspectRatio="xMidYMid meet" height="1500" width="1500" xmlns="http://www.w3.org/2000/svg" xmlns:xlink="http://www.w3.org/1999/xlink"><g id="tight-bounds" transform="matrix(1,0,0,1,0.13999999999998636,0.13990039062557003)"><svg viewBox="0 0 279.72 279.72" height="279.72" width="279.72"><g><svg viewBox="0 0 279.72 279.72" height="279.72" width="279.72"><g><svg viewBox="0 0 279.72 279.72" height="279.72" width="279.72"><g id="textblocktransform"><svg viewBox="0 0 279.72 279.72" height="279.72" width="279.72" id="textblock"><g><svg viewBox="0 0 279.72 279.72" height="279.72" width="279.72"><g transform="matrix(1,0,0,1,57.446704652707865,57.446704652707865)"><svg viewBox="0 0 164.8265906945843 164.8265906945843" height="164.8265906945843" width="164.8265906945843"><g><circle r="82" cx="82.41329534729215" cy="82.41329534729215" fill="#ffffff" data-fill-palette-color="accent"></circle><svg xmlns="http://www.w3.org/2000/svg" xmlns:xlink="http://www.w3.org/1999/xlink" version="1.1" x="24.72398860418764" y="24.723988604187646" viewBox="16.6 16.6 66.80000000000001 66.80000000000001" enable-background="new 0 0 100 100" xml:space="preserve" height="115.378613486209" width="115.378613486209" class="icon-xg-0" data-fill-palette-color="quaternary" id="xg-0"><path fill="none" d="M64.3 58.6L64.3 58.6l-3.9-2.1 0 0c-0.1 0-0.1 0-0.2 0-0.1 0.1-0.1 0.1 0 0.2l0 0 2.1 3.9 0 0c0.1 0.1 0.1 0.2 0.2 0.3 0.6 0.6 1.6 0.6 2.2 0 0.6-0.6 0.6-1.6 0-2.2C64.5 58.8 64.4 58.7 64.3 58.6z"></path><path fill="none" d="M69.1 44.9c-0.1 0-0.3 0-0.4 0.1l0 0-4.2 1.3 0 0c-0.1 0-0.1 0.1-0.1 0.2 0 0.1 0.1 0.1 0.1 0.2l0 0 4.2 1.3 0 0c0.1 0 0.3 0.1 0.4 0.1 0.9 0 1.6-0.7 1.6-1.6C70.7 45.6 70 44.9 69.1 44.9z"></path><path fill="none" d="M60.4 47c0-5.8-4.7-10.4-10.4-10.4S39.6 41.2 39.6 47c0 1.6 0.4 3.2 1.1 4.6 0 0 0 0 0 0 0 0 0 0.1 0.1 0.1 0.2 0.5 0.5 1 0.9 1.4 1.8 3.3 3.3 5.9 3.4 7.1v3.1c0 0.3 0.2 0.5 0.5 0.5l9.6 0c0.3 0 0.5-0.2 0.5-0.5v-3.1c0.1-1.2 1.1-3.8 2.9-7.1 0.3-0.4 0.6-0.9 0.9-1.4 0 0 0-0.1 0.1-0.1 0 0 0 0 0 0C60.1 50.2 60.4 48.6 60.4 47z"></path><path fill="none" d="M60.1 36.3c0.1 0.1 0.1 0.1 0.2 0l0 0 3.9-2.1 0 0c0.1-0.1 0.2-0.1 0.3-0.2 0.6-0.6 0.6-1.6 0-2.2-0.6-0.6-1.6-0.6-2.2 0-0.1 0.1-0.2 0.2-0.2 0.3l0 0-2.1 3.9 0 0C60.1 36.2 60.1 36.3 60.1 36.3z"></path><path fill="none" d="M54.5 68.1h-8.9c-0.6 0-1.1 0.5-1.1 1.1 0 0.6 0.5 1.1 1.1 1.1h8.9c0.6 0 1.1-0.5 1.1-1.1C55.5 68.6 55.1 68.1 54.5 68.1z"></path><path fill="none" d="M35.6 46.6c0.1 0 0.1-0.1 0.1-0.2 0-0.1-0.1-0.1-0.1-0.2l0 0L31.3 45l0 0c-0.1 0-0.3-0.1-0.4-0.1-0.9 0-1.6 0.7-1.6 1.6S30 48 30.9 48c0.1 0 0.3 0 0.4-0.1l0 0L35.6 46.6 35.6 46.6z"></path><path fill="none" d="M39.9 56.6c-0.1-0.1-0.1-0.1-0.2 0l0 0-3.9 2.1 0 0c-0.1 0.1-0.2 0.1-0.3 0.2-0.6 0.6-0.6 1.6 0 2.2 0.6 0.6 1.6 0.6 2.2 0 0.1-0.1 0.2-0.2 0.2-0.3l0 0 2.1-3.9 0 0C39.9 56.7 39.9 56.7 39.9 56.6z"></path><path fill="none" d="M54.5 64.8h-8.9c-0.6 0-1.1 0.5-1.1 1.1s0.5 1.1 1.1 1.1h8.9c0.6 0 1.1-0.5 1.1-1.1C55.5 65.2 55.1 64.8 54.5 64.8z"></path><path fill="none" d="M35.7 34.3L35.7 34.3l3.9 2.1 0 0c0.1 0 0.1 0 0.2 0 0.1-0.1 0.1-0.1 0-0.2l0 0-2.1-3.9 0 0c-0.1-0.1-0.1-0.2-0.2-0.3-0.6-0.6-1.6-0.6-2.2 0-0.6 0.6-0.6 1.6 0 2.2C35.5 34.2 35.6 34.3 35.7 34.3z"></path><path fill="none" d="M53.5 71.5h-7.1c-0.6 0-1.1 0.5-1.1 1.1 0 0.6 0.5 1.1 1.1 1.1h7.1c0.6 0 1.1-0.5 1.1-1.1C54.6 72 54.1 71.5 53.5 71.5z"></path><path fill="none" d="M48.5 27.8l1.3 4.2 0 0c0 0.1 0.1 0.1 0.2 0.1 0.1 0 0.1-0.1 0.2-0.1l0 0 1.3-4.2 0 0c0-0.1 0.1-0.3 0.1-0.4 0-0.9-0.7-1.6-1.6-1.6-0.9 0-1.6 0.7-1.6 1.6C48.4 27.5 48.5 27.7 48.5 27.8L48.5 27.8z"></path><path d="M50 16.6L50 16.6c-18.4 0-33.4 14.9-33.4 33.4v0c0 18.4 14.9 33.4 33.4 33.4h33.4V50C83.4 31.6 68.4 16.6 50 16.6zM60.1 36.1l2.1-3.9 0 0c0.1-0.1 0.1-0.2 0.2-0.3 0.6-0.6 1.6-0.6 2.2 0 0.6 0.6 0.6 1.6 0 2.2-0.1 0.1-0.2 0.2-0.3 0.2l0 0-3.9 2.1 0 0c-0.1 0-0.2 0-0.2 0C60.1 36.3 60.1 36.2 60.1 36.1L60.1 36.1zM50 25.8c0.9 0 1.6 0.7 1.6 1.6 0 0.1 0 0.3-0.1 0.4l0 0L50.2 32l0 0c0 0.1-0.1 0.1-0.2 0.1-0.1 0-0.1-0.1-0.2-0.1l0 0-1.3-4.2 0 0c0-0.1-0.1-0.3-0.1-0.4C48.4 26.5 49.1 25.8 50 25.8zM35.4 31.9c0.6-0.6 1.6-0.6 2.2 0 0.1 0.1 0.2 0.2 0.2 0.3l0 0 2.1 3.9 0 0c0 0.1 0 0.2 0 0.2-0.1 0.1-0.1 0.1-0.2 0l0 0-3.9-2.1 0 0c-0.1-0.1-0.2-0.1-0.3-0.2C34.8 33.5 34.8 32.5 35.4 31.9zM31.3 48C31.2 48 31 48 30.9 48c-0.9 0-1.6-0.7-1.6-1.6s0.7-1.6 1.6-1.6c0.1 0 0.3 0 0.4 0.1l0 0 4.2 1.3 0 0c0.1 0 0.1 0.1 0.1 0.2 0 0.1-0.1 0.1-0.1 0.2l0 0L31.3 48 31.3 48zM39.9 56.8l-2.1 3.9 0 0c-0.1 0.1-0.1 0.2-0.2 0.3-0.6 0.6-1.6 0.6-2.2 0-0.6-0.6-0.6-1.6 0-2.2 0.1-0.1 0.2-0.2 0.3-0.2l0 0 3.9-2.1 0 0c0.1 0 0.2 0 0.2 0C39.9 56.7 39.9 56.7 39.9 56.8L39.9 56.8zM53.5 73.7h-7.1c-0.6 0-1.1-0.5-1.1-1.1 0-0.6 0.5-1.1 1.1-1.1h7.1c0.6 0 1.1 0.5 1.1 1.1C54.6 73.2 54.1 73.7 53.5 73.7zM54.5 70.3h-8.9c-0.6 0-1.1-0.5-1.1-1.1 0-0.6 0.5-1.1 1.1-1.1h8.9c0.6 0 1.1 0.5 1.1 1.1C55.5 69.8 55.1 70.3 54.5 70.3zM54.5 66.9h-8.9c-0.6 0-1.1-0.5-1.1-1.1s0.5-1.1 1.1-1.1h8.9c0.6 0 1.1 0.5 1.1 1.1C55.5 66.4 55.1 66.9 54.5 66.9zM59.3 51.7c-0.2 0.5-0.5 1-0.9 1.4-1.8 3.3-2.9 5.9-2.9 7.1v3.1c0 0.3-0.2 0.5-0.5 0.5l-9.6 0c-0.3 0-0.5-0.2-0.5-0.5v-3.1c-0.1-1.2-1.6-3.8-3.4-7.1-0.3-0.5-0.6-0.9-0.9-1.4 0 0 0-0.1-0.1-0.1 0 0 0 0 0 0-0.7-1.4-1.1-2.9-1.1-4.6 0-5.8 4.7-10.4 10.4-10.4S60.4 41.2 60.4 47C60.4 48.6 60.1 50.2 59.3 51.7 59.4 51.6 59.4 51.6 59.3 51.7 59.4 51.6 59.4 51.6 59.3 51.7zM64.6 61.1c-0.6 0.6-1.6 0.6-2.2 0-0.1-0.1-0.2-0.2-0.2-0.3l0 0-2.1-3.9 0 0c0-0.1 0-0.2 0-0.2 0.1-0.1 0.1-0.1 0.2 0l0 0 3.9 2.1 0 0c0.1 0.1 0.2 0.1 0.3 0.2C65.2 59.5 65.2 60.5 64.6 61.1zM69.1 48c-0.1 0-0.3 0-0.4-0.1l0 0-4.2-1.3 0 0c-0.1 0-0.1-0.1-0.1-0.2 0-0.1 0.1-0.1 0.1-0.2l0 0 4.2-1.3 0 0c0.1 0 0.3-0.1 0.4-0.1 0.9 0 1.6 0.7 1.6 1.6C70.7 47.3 70 48 69.1 48z" fill="#000000" data-fill-palette-color="quaternary"></path></svg></g></svg></g><g><path d="M29.487 105.589c-0.136 0.41-0.329 0.677-0.58 0.803-0.251 0.126-0.572 0.124-0.962-0.005v0l-24.798-8.216c-0.403-0.134-0.664-0.325-0.784-0.574-0.12-0.249-0.111-0.578 0.024-0.988v0l4.476-13.506c0.093-0.28 0.244-0.453 0.453-0.52 0.216-0.065 0.536-0.028 0.959 0.112v0l0.634 0.21c0.39 0.129 0.659 0.287 0.806 0.473 0.148 0.186 0.175 0.419 0.083 0.698v0l-3.732 11.263 8.825 2.924 3.351-10.112c0.09-0.273 0.25-0.44 0.48-0.501 0.229-0.061 0.549-0.024 0.958 0.112v0l0.585 0.194c0.41 0.136 0.685 0.295 0.826 0.479 0.141 0.184 0.166 0.412 0.076 0.685v0l-3.351 10.113 9.469 3.137 3.748-11.312c0.09-0.273 0.247-0.441 0.47-0.504 0.223-0.063 0.539-0.027 0.949 0.109v0l0.634 0.21c0.39 0.129 0.659 0.287 0.807 0.473 0.148 0.186 0.176 0.416 0.085 0.688v0z" fill="#ffffff" data-fill-palette-color="primary"></path><path d="M53.106 62.66c-0.432 0.449-0.781 0.732-1.045 0.848-0.269 0.121-0.49 0.099-0.662-0.067v0c-0.133-0.128-0.235-0.378-0.305-0.75v0l-2.307-11.392-10.796-1.897c-0.36-0.071-0.599-0.163-0.717-0.277v0c-0.178-0.171-0.211-0.393-0.1-0.666 0.116-0.269 0.407-0.645 0.873-1.128v0l0.271-0.281c0.318-0.331 0.604-0.568 0.858-0.714 0.249-0.14 0.52-0.184 0.811-0.132v0l6.875 1.23c0.423 0.094 0.961 0.231 1.613 0.412v0c-0.036-0.12-0.093-0.328-0.172-0.621-0.083-0.289-0.172-0.626-0.266-1.012v0l-1.524-6.888c-0.09-0.429 0.204-0.997 0.883-1.702v0l0.107-0.111c0.437-0.454 0.783-0.739 1.037-0.855 0.259-0.111 0.478-0.082 0.656 0.089v0c0.128 0.124 0.225 0.364 0.29 0.721v0l2.191 10.653 11.545 1.977c0.403 0.065 0.662 0.152 0.775 0.262v0c0.163 0.157 0.184 0.382 0.064 0.674-0.116 0.288-0.409 0.676-0.879 1.164v0l-0.249 0.259c-0.333 0.345-0.624 0.583-0.873 0.714-0.244 0.135-0.508 0.172-0.79 0.11v0l-7.669-1.367c-0.432-0.074-0.787-0.15-1.065-0.227-0.278-0.077-0.46-0.125-0.548-0.142v0c0.025 0.062 0.077 0.236 0.155 0.52 0.078 0.275 0.165 0.639 0.261 1.092v0l1.656 7.685c0.096 0.453-0.189 1.026-0.854 1.716v0z" fill="#ffffff" data-fill-palette-color="primary"></path><path d="M84.026 7.292c-0.985 0.463-1.605 0.425-1.858-0.114v0l-1.028-2.184c-0.254-0.539 0.112-1.04 1.098-1.504v0l0.437-0.206c0.998-0.469 1.623-0.434 1.877 0.105v0l1.028 2.185c0.254 0.539-0.119 1.043-1.117 1.513v0zM95.475 31.253c-0.985 0.463-1.605 0.425-1.858-0.113v0l-8.38-17.822c-0.254-0.539 0.112-1.04 1.097-1.503v0l0.14-0.066c0.998-0.469 1.623-0.434 1.877 0.105v0l8.38 17.821c0.254 0.539-0.119 1.043-1.116 1.513v0z" fill="#ffffff" data-fill-palette-color="primary"></path><path d="M135.029 21.94c-0.582 0.022-1.005-0.037-1.272-0.178-0.266-0.134-0.404-0.351-0.415-0.652v0l-0.552-14.32c-0.068-1.772-0.203-3.049-0.404-3.829-0.195-0.781-0.293-1.209-0.296-1.284v0c-0.013-0.335 0.235-0.585 0.742-0.748 0.501-0.17 0.98-0.264 1.439-0.282v0c0.383-0.015 0.675 0.183 0.876 0.593 0.201 0.404 0.35 0.819 0.449 1.248 0.098 0.421 0.167 0.693 0.206 0.814v0c0.818-0.998 1.778-1.785 2.88-2.362 1.102-0.577 2.228-0.888 3.377-0.932v0c2.08-0.08 3.728 0.442 4.944 1.568 1.215 1.125 1.862 2.711 1.941 4.757v0l0.545 14.156c0.012 0.301-0.11 0.529-0.365 0.682-0.254 0.161-0.665 0.252-1.233 0.274v0l-0.185 0.007c-0.547 0.021-0.954-0.039-1.22-0.18-0.266-0.134-0.404-0.351-0.416-0.652v0l-0.531-13.807c-0.048-1.259-0.449-2.22-1.201-2.883-0.752-0.67-1.789-0.98-3.109-0.929v0c-0.917 0.035-1.828 0.327-2.732 0.876-0.904 0.549-1.675 1.278-2.311 2.186v0l0.574 14.916c0.012 0.301-0.11 0.529-0.365 0.682-0.254 0.161-0.659 0.252-1.212 0.273v0z" fill="#ffffff" data-fill-palette-color="primary"></path><path d="M189.777 31.686c-1.911-0.826-3.255-1.963-4.032-3.41-0.774-1.454-0.761-3.108 0.04-4.962v0c0.845-1.955 2.078-3.168 3.699-3.639 1.624-0.477 3.358-0.485 5.203-0.024 1.848 0.455 4.01 1.192 6.487 2.211v0l0.762-1.764c0.408-0.943 0.414-1.839 0.02-2.688-0.397-0.843-1.324-1.58-2.783-2.21v0c-1.113-0.481-2.143-0.773-3.09-0.877-0.944-0.095-1.862-0.118-2.756-0.071v0c-0.373 0.018-0.594 0.012-0.663-0.018v0c-0.17-0.073-0.302-0.276-0.398-0.609-0.102-0.335-0.158-0.688-0.169-1.058-0.018-0.373 0.005-0.632 0.067-0.776v0c0.139-0.321 0.626-0.524 1.461-0.611 0.832-0.096 1.843-0.035 3.033 0.18 1.19 0.216 2.373 0.578 3.549 1.086v0c2.351 1.016 3.95 2.315 4.795 3.897 0.852 1.584 0.878 3.304 0.077 5.158v0l-3.631 8.402c-0.706 1.635-1.143 2.845-1.312 3.63-0.162 0.788-0.257 1.217-0.287 1.286v0c-0.133 0.308-0.464 0.426-0.992 0.355-0.529-0.072-0.997-0.196-1.406-0.373v0c-0.339-0.147-0.506-0.443-0.501-0.888 0-0.448 0.079-1.063 0.238-1.844v0l0.098-0.461c-1.143 0.521-2.349 0.809-3.619 0.864-1.261 0.052-2.558-0.21-3.89-0.786zM191.111 29.04c1.238 0.535 2.391 0.768 3.458 0.7 1.063-0.078 2.239-0.33 3.528-0.759v0l1.911-4.422c-1.86-0.789-3.418-1.369-4.675-1.741-1.254-0.378-2.454-0.475-3.601-0.291-1.144 0.177-1.973 0.863-2.489 2.057v0c-0.432 1-0.49 1.877-0.176 2.633 0.312 0.762 0.994 1.369 2.044 1.823z" fill="#ffffff" data-fill-palette-color="primary"></path><path d="M229.355 59.255c-0.397-0.426-0.628-0.786-0.695-1.079-0.072-0.288 0.002-0.535 0.223-0.74v0l10.49-9.764c1.298-1.208 2.18-2.141 2.644-2.798 0.46-0.662 0.717-1.019 0.773-1.07v0c0.246-0.229 0.596-0.204 1.051 0.074 0.46 0.273 0.847 0.578 1.159 0.914v0c0.252 0.271 0.296 0.604 0.132 1-0.16 0.401-0.451 0.892-0.875 1.474v0l-0.269 0.419c2.478-0.323 4.296 0.137 5.453 1.38v0c0.532 0.571 0.83 1.098 0.895 1.58 0.06 0.487-0.083 0.891-0.428 1.214v0c-0.336 0.313-0.748 0.584-1.236 0.813-0.483 0.235-0.797 0.274-0.942 0.119v0c-0.075-0.08-0.17-0.253-0.287-0.519v0c-0.088-0.255-0.198-0.489-0.331-0.703-0.123-0.213-0.315-0.46-0.577-0.74v0c-0.429-0.461-0.966-0.771-1.609-0.93-0.653-0.159-1.274-0.227-1.861-0.205-0.587 0.023-0.896 0.048-0.925 0.076v0l-10.927 10.17c-0.221 0.205-0.472 0.262-0.754 0.169-0.288-0.088-0.618-0.332-0.992-0.733v0z" fill="#ffffff" data-fill-palette-color="primary"></path><path d="M245.166 100.38c-0.293-0.833-0.23-1.324 0.19-1.471v0c0.103-0.036 0.334-0.052 0.691-0.048v0l8.972 0.458 15.598-13.05c0.051-0.04 0.127-0.092 0.228-0.156 0.098-0.071 0.174-0.116 0.225-0.134v0c0.207-0.073 0.417 0.009 0.631 0.246 0.205 0.233 0.408 0.633 0.608 1.202v0l0.106 0.3c0.305 0.866 0.284 1.446-0.062 1.743v0l-9.054 7.598c-0.79 0.663-1.938 1.528-3.443 2.595v0l0.024 0.068 1.594-0.049c0.238-0.004 0.653-0.012 1.244-0.024 0.585-0.01 1.083-0.007 1.495 0.007v0l11.784 0.153c0.446-0.012 0.832 0.444 1.156 1.368v0l0.048 0.136c0.355 1.008 0.316 1.588-0.117 1.74v0c-0.097 0.034-0.281 0.059-0.551 0.074v0l-29.717-0.636c-0.616-0.037-1.097-0.547-1.442-1.528v0z" fill="#ffffff" data-fill-palette-color="primary"></path><path d="M10.383 181.112c-0.238-0.865-0.122-1.362 0.346-1.491v0l21.14-5.807c0.482-0.132 0.842 0.234 1.079 1.099v0l0.068 0.248c0.236 0.859 0.113 1.354-0.369 1.486v0l-21.139 5.807c-0.469 0.129-0.821-0.236-1.057-1.094v0z" fill="#ffffff" data-fill-palette-color="primary"></path><path d="M14.537 192.518c-0.183-0.436-0.262-0.774-0.236-1.015 0.025-0.241 0.155-0.41 0.388-0.508v0l10.752-4.51c1.333-0.559 2.269-1.026 2.81-1.402 0.534-0.373 0.83-0.571 0.887-0.594v0c0.253-0.106 0.517 0.01 0.792 0.347 0.269 0.34 0.476 0.684 0.622 1.031v0c0.119 0.284 0.053 0.561-0.198 0.83-0.251 0.269-0.525 0.502-0.82 0.7-0.296 0.198-0.485 0.33-0.57 0.395v0c0.996 0.34 1.873 0.845 2.63 1.515 0.753 0.679 1.309 1.449 1.669 2.308v0c0.657 1.566 0.731 2.972 0.221 4.218-0.51 1.246-1.535 2.192-3.076 2.839v0l-10.628 4.458c-0.234 0.098-0.445 0.072-0.635-0.079-0.189-0.151-0.373-0.438-0.551-0.861v0l-0.055-0.132c-0.175-0.417-0.25-0.746-0.225-0.987 0.025-0.241 0.155-0.41 0.389-0.508v0l10.373-4.351c0.941-0.395 1.56-0.974 1.856-1.737 0.294-0.769 0.234-1.647-0.179-2.632v0c-0.289-0.688-0.771-1.299-1.449-1.832-0.677-0.533-1.457-0.915-2.341-1.146v0l-11.197 4.697c-0.234 0.098-0.444 0.075-0.631-0.069-0.189-0.151-0.372-0.435-0.546-0.852v0z" fill="#ffffff" data-fill-palette-color="primary"></path><path d="M24.186 212.109c-0.249-0.402-0.38-0.723-0.394-0.965-0.013-0.242 0.088-0.429 0.304-0.563v0l9.906-6.149c1.228-0.762 2.079-1.371 2.554-1.827 0.469-0.452 0.73-0.695 0.782-0.727v0c0.233-0.144 0.512-0.072 0.837 0.218 0.319 0.294 0.578 0.6 0.777 0.92v0c0.163 0.262 0.141 0.545-0.065 0.851-0.206 0.305-0.439 0.579-0.699 0.821-0.261 0.242-0.427 0.402-0.501 0.479v0c1.038 0.178 1.983 0.539 2.836 1.082 0.851 0.552 1.521 1.224 2.012 2.015v0c0.896 1.443 1.19 2.82 0.884 4.131-0.307 1.311-1.17 2.407-2.59 3.288v0l-9.793 6.079c-0.215 0.134-0.428 0.141-0.64 0.022-0.211-0.119-0.437-0.373-0.679-0.764v0l-0.076-0.122c-0.238-0.384-0.364-0.697-0.377-0.939-0.013-0.242 0.088-0.429 0.303-0.563v0l9.558-5.932c0.867-0.538 1.387-1.207 1.559-2.007 0.169-0.806-0.029-1.663-0.592-2.571v0c-0.394-0.634-0.967-1.161-1.719-1.581-0.752-0.42-1.583-0.674-2.492-0.762v0l-10.317 6.403c-0.215 0.134-0.427 0.144-0.634 0.031-0.211-0.119-0.436-0.37-0.674-0.755v0z" fill="#ffffff" data-fill-palette-color="primary"></path><path d="M40.278 234.054c-1.654-1.884-2.35-3.815-2.091-5.792 0.26-1.978 1.468-3.913 3.625-5.806v0c2.151-1.888 4.252-2.844 6.301-2.866 2.044-0.017 3.88 0.9 5.506 2.753v0c1.613 1.837 2.27 3.749 1.971 5.734-0.304 1.989-1.542 3.937-3.714 5.844v0c-2.167 1.902-4.232 2.867-6.194 2.894-1.967 0.022-3.768-0.898-5.404-2.761zM42.016 232.405c1.066 1.215 2.248 1.767 3.546 1.658 1.303-0.114 2.783-0.899 4.441-2.353v0c1.668-1.464 2.645-2.837 2.933-4.119 0.282-1.277-0.11-2.523-1.177-3.738v0c-1.062-1.21-2.237-1.754-3.526-1.635-1.294 0.124-2.78 0.923-4.458 2.396v0c-1.668 1.464-2.644 2.822-2.929 4.075-0.291 1.257 0.1 2.496 1.17 3.716z" fill="#ffffff" data-fill-palette-color="primary"></path><path d="M54.994 247.944c-0.607-0.502-0.844-0.919-0.71-1.253v0l6.054-15.732c0.086-0.222 0.148-0.357 0.188-0.405v0c0.109-0.132 0.289-0.161 0.539-0.088 0.245 0.069 0.555 0.259 0.93 0.569v0l0.134 0.111c0.597 0.493 0.826 0.909 0.688 1.248v0l-4.147 10.326c-0.312 0.808-0.782 1.877-1.409 3.206v0l-0.339 0.733 0.119 0.098 0.802-0.617c1.049-0.839 1.901-1.472 2.556-1.899v0l9.435-6.05c0.307-0.199 0.769-0.044 1.387 0.466v0l0.071 0.059c0.644 0.532 0.846 0.943 0.607 1.234v0c-0.079 0.095-0.209 0.183-0.391 0.263v0l-14.27 8.918c-0.308 0.19-0.763 0.036-1.365-0.461v0z" fill="#ffffff" data-fill-palette-color="primary"></path><path d="M70.436 259.158c-1.44-0.888-2.386-1.962-2.84-3.224-0.453-1.261-0.249-2.591 0.614-3.99v0c0.909-1.475 2.046-2.307 3.409-2.496 1.364-0.189 2.761 0.005 4.192 0.581 1.433 0.586 3.088 1.438 4.966 2.556v0l0.825-1.338c0.439-0.711 0.549-1.432 0.331-2.162-0.221-0.724-0.883-1.426-1.985-2.105v0c-0.839-0.518-1.633-0.874-2.382-1.07-0.752-0.19-1.489-0.319-2.211-0.386v0c-0.305-0.027-0.484-0.057-0.537-0.089v0c-0.128-0.079-0.211-0.259-0.247-0.539-0.046-0.278-0.052-0.567-0.019-0.869 0.037-0.307 0.087-0.513 0.152-0.618v0c0.151-0.245 0.568-0.354 1.251-0.327 0.677 0.023 1.484 0.191 2.418 0.502 0.931 0.317 1.843 0.75 2.735 1.3v0c1.772 1.093 2.906 2.327 3.401 3.702 0.505 1.373 0.324 2.763-0.542 4.168v0l-3.909 6.339c-0.762 1.236-1.255 2.159-1.478 2.77-0.227 0.616-0.357 0.951-0.389 1.003v0c-0.144 0.233-0.424 0.29-0.841 0.169-0.42-0.114-0.785-0.267-1.094-0.457v0c-0.251-0.155-0.349-0.412-0.295-0.774 0.057-0.367 0.193-0.855 0.407-1.462v0l0.129-0.367c-0.982 0.288-1.985 0.381-3.009 0.281-1.026-0.11-2.044-0.476-3.052-1.098zM71.834 257.184c0.933 0.575 1.833 0.897 2.7 0.965 0.867 0.068 1.843 0.006 2.927-0.187v0l2.059-3.34c-1.403-0.857-2.59-1.508-3.561-1.955-0.968-0.452-1.922-0.674-2.861-0.665-0.948 0.011-1.701 0.468-2.258 1.371v0c-0.464 0.752-0.614 1.452-0.45 2.1 0.169 0.652 0.651 1.222 1.444 1.711z" fill="#ffffff" data-fill-palette-color="primary"></path><path d="M89.785 269.218c-1.014-0.45-1.783-1.158-2.306-2.124-0.523-0.966-0.437-2.232 0.257-3.797v0l4.294-9.681-1.521-0.675c-0.219-0.097-0.344-0.239-0.374-0.424-0.036-0.188 0.016-0.442 0.158-0.762v0l0.167-0.376c0.142-0.319 0.293-0.526 0.454-0.618 0.158-0.102 0.346-0.105 0.565-0.008v0l1.522 0.675 1.769-3.026c0.213-0.43 0.633-0.506 1.258-0.228v0l0.291 0.129c0.319 0.142 0.53 0.299 0.634 0.472 0.103 0.173 0.105 0.372 0.005 0.598v0l-1.412 3.183 2.544 1.129c0.213 0.094 0.337 0.236 0.374 0.424 0.033 0.179-0.022 0.429-0.163 0.748v0l-0.167 0.376c-0.142 0.319-0.291 0.53-0.449 0.632-0.164 0.1-0.352 0.102-0.565 0.008v0l-2.545-1.129-4.19 9.447c-0.369 0.833-0.484 1.479-0.343 1.939 0.144 0.453 0.466 0.791 0.967 1.013v0c0.388 0.172 0.698 0.284 0.93 0.334 0.232 0.051 0.383 0.091 0.452 0.121v0c0.182 0.081 0.251 0.329 0.209 0.745-0.042 0.416-0.112 0.733-0.209 0.953v0c-0.267 0.601-1.135 0.575-2.606-0.078z" fill="#ffffff" data-fill-palette-color="primary"></path><path d="M106.764 252.376c-0.834-0.292-1.17-0.668-1.009-1.127v0l0.649-1.852c0.161-0.459 0.658-0.542 1.492-0.25v0l0.368 0.129c0.847 0.297 1.19 0.674 1.029 1.134v0l-0.649 1.852c-0.161 0.459-0.665 0.54-1.511 0.243v0zM99.739 272.828c-0.834-0.292-1.17-0.668-1.01-1.127v0l5.304-15.134c0.161-0.459 0.658-0.542 1.492-0.25v0l0.126 0.044c0.847 0.297 1.19 0.674 1.028 1.134v0l-5.303 15.134c-0.161 0.459-0.665 0.54-1.511 0.243v0z" fill="#ffffff" data-fill-palette-color="primary"></path><path d="M116.323 277.04c-2.453-0.513-4.17-1.639-5.15-3.376-0.98-1.737-1.176-4.01-0.588-6.819v0c0.586-2.802 1.692-4.827 3.318-6.075 1.624-1.241 3.643-1.61 6.056-1.105v0c2.393 0.501 4.066 1.635 5.019 3.401 0.951 1.773 1.131 4.074 0.539 6.904v0c-0.591 2.822-1.662 4.833-3.215 6.034-1.559 1.199-3.552 1.545-5.979 1.036zM116.723 274.679c1.582 0.331 2.859 0.063 3.831-0.804 0.974-0.874 1.686-2.39 2.138-4.549v0c0.454-2.172 0.412-3.857-0.129-5.054-0.541-1.191-1.603-1.952-3.185-2.283v0c-1.575-0.33-2.842-0.06-3.801 0.811-0.96 0.877-1.669 2.408-2.126 4.592v0c-0.454 2.172-0.42 3.844 0.104 5.018 0.523 1.18 1.578 1.936 3.168 2.269z" fill="#ffffff" data-fill-palette-color="primary"></path><path d="M133.093 279.177c-0.472-0.024-0.811-0.1-1.017-0.227-0.206-0.127-0.303-0.317-0.289-0.571v0l0.596-11.644c0.074-1.443 0.059-2.49-0.044-3.14-0.104-0.643-0.155-0.995-0.152-1.057v0c0.014-0.274 0.233-0.461 0.656-0.563 0.423-0.095 0.823-0.133 1.199-0.113v0c0.308 0.016 0.528 0.195 0.662 0.538 0.133 0.343 0.225 0.69 0.276 1.043 0.051 0.352 0.087 0.58 0.109 0.684v0c0.738-0.751 1.573-1.322 2.505-1.713 0.939-0.384 1.873-0.552 2.803-0.504v0c1.696 0.087 2.995 0.63 3.897 1.629 0.902 0.999 1.31 2.334 1.225 4.003v0l-0.59 11.511c-0.013 0.253-0.128 0.432-0.346 0.538-0.218 0.105-0.556 0.146-1.015 0.123v0l-0.143-0.008c-0.451-0.023-0.78-0.098-0.987-0.225-0.206-0.127-0.303-0.317-0.289-0.571v0l0.575-11.234c0.052-1.019-0.201-1.828-0.76-2.425-0.566-0.598-1.382-0.925-2.449-0.979v0c-0.746-0.038-1.505 0.132-2.279 0.51-0.774 0.379-1.456 0.916-2.048 1.613v0l-0.621 12.127c-0.013 0.253-0.125 0.432-0.336 0.538-0.218 0.105-0.553 0.147-1.004 0.124v0z" fill="#ffffff" data-fill-palette-color="primary"></path><path d="M173.617 251.364c2.146-0.508 4.135-0.517 5.968-0.029 1.826 0.49 3.374 1.426 4.644 2.807 1.268 1.375 2.149 3.105 2.643 5.192v0c0.462 1.953 0.592 3.797 0.39 5.534-0.195 1.735-0.695 3.191-1.5 4.366-0.804 1.182-1.859 1.928-3.166 2.237v0c-0.666 0.158-1.269 0.17-1.807 0.037-0.537-0.126-0.98-0.363-1.329-0.709-0.349-0.347-0.582-0.763-0.697-1.25v0l-0.052-0.22c-0.325 1.125-0.805 2.01-1.441 2.653-0.635 0.65-1.388 1.078-2.262 1.284v0c-0.726 0.172-1.481 0.164-2.264-0.024-0.79-0.186-1.535-0.657-2.235-1.413-0.693-0.758-1.213-1.87-1.56-3.337v0c-0.399-1.686-0.474-3.255-0.226-4.707 0.256-1.447 0.813-2.662 1.671-3.647 0.851-0.983 1.957-1.635 3.316-1.956v0c0.773-0.183 1.497-0.189 2.171-0.017 0.679 0.163 1.269 0.397 1.77 0.7v0l0.069-0.555c0.036-0.382 0.093-0.648 0.17-0.8 0.083-0.153 0.268-0.264 0.555-0.332v0l0.2-0.047c0.253-0.06 0.449-0.05 0.587 0.03 0.133 0.088 0.227 0.245 0.281 0.472v0c0.141 1.072 0.404 3.092 0.79 6.062 0.393 2.969 0.626 4.609 0.7 4.923v0c0.211 0.893 0.74 1.24 1.586 1.039v0c0.786-0.186 1.44-0.77 1.961-1.751 0.513-0.987 0.828-2.212 0.946-3.676 0.112-1.462-0.013-2.956-0.374-4.483v0c-0.424-1.793-1.176-3.29-2.255-4.491-1.071-1.196-2.379-2.01-3.923-2.439-1.544-0.43-3.206-0.434-4.986-0.014v0c-2.353 0.556-4.362 1.672-6.028 3.347-1.666 1.675-2.818 3.693-3.456 6.054-0.638 2.361-0.657 4.807-0.058 7.339v0c0.479 2.026 1.273 3.731 2.382 5.116 1.107 1.378 2.427 2.347 3.96 2.906 1.531 0.553 3.157 0.626 4.876 0.219v0c0.926-0.219 1.674-0.466 2.242-0.741 0.568-0.275 1.111-0.583 1.629-0.924v0c0.054-0.041 0.179-0.12 0.376-0.237 0.198-0.117 0.37-0.193 0.517-0.227v0c0.293-0.069 0.499 0.146 0.617 0.645v0c0.091 0.387-0.15 0.778-0.725 1.175-0.575 0.396-1.269 0.747-2.084 1.052-0.823 0.3-1.567 0.529-2.234 0.687v0c-2.073 0.49-4.022 0.431-5.849-0.179-1.826-0.61-3.39-1.7-4.69-3.272-1.299-1.565-2.221-3.5-2.767-5.806v0c-0.659-2.786-0.62-5.491 0.119-8.114 0.738-2.624 2.058-4.868 3.96-6.732 1.902-1.865 4.193-3.114 6.872-3.747zM178.165 265.637l-0.105-0.757c-0.332-2.385-0.48-3.831-0.446-4.338v0c-1.061-0.53-2.145-0.664-3.251-0.403v0c-1.7 0.402-2.754 1.299-3.164 2.691-0.416 1.393-0.398 3.046 0.054 4.959v0c0.342 1.446 0.85 2.42 1.525 2.922 0.67 0.51 1.434 0.664 2.294 0.461v0c0.726-0.172 1.386-0.701 1.979-1.588 0.594-0.879 0.966-2.195 1.114-3.947z" fill="#ffffff" data-fill-palette-color="primary"></path><path d="M191.568 247.34c-0.81 0.352-1.312 0.305-1.506-0.141v0l-0.781-1.8c-0.194-0.446 0.115-0.845 0.925-1.197v0l0.358-0.155c0.823-0.357 1.331-0.313 1.525 0.133v0l0.781 1.8c0.194 0.446-0.121 0.848-0.944 1.205v0zM200.301 267.123c-0.81 0.352-1.312 0.305-1.506-0.141v0l-6.385-14.71c-0.194-0.446 0.115-0.845 0.925-1.197v0l0.122-0.053c0.823-0.357 1.331-0.313 1.525 0.133v0l6.386 14.71c0.194 0.446-0.121 0.848-0.945 1.205v0z" fill="#ffffff" data-fill-palette-color="primary"></path><path d="M213.799 260.094c-0.965 0.547-1.991 0.744-3.079 0.59-1.088-0.155-2.054-0.977-2.899-2.466v0l-5.225-9.213-1.448 0.821c-0.208 0.118-0.396 0.134-0.563 0.048-0.173-0.083-0.346-0.276-0.518-0.58v0l-0.203-0.358c-0.172-0.304-0.248-0.548-0.227-0.733 0.012-0.188 0.122-0.341 0.33-0.459v0l1.448-0.821-1.379-3.222c-0.219-0.427-0.03-0.81 0.566-1.147v0l0.277-0.157c0.304-0.172 0.556-0.248 0.756-0.229 0.2 0.02 0.361 0.137 0.483 0.352v0l1.718 3.029 2.422-1.373c0.203-0.115 0.39-0.131 0.563-0.048 0.164 0.08 0.332 0.272 0.504 0.576v0l0.203 0.358c0.172 0.304 0.253 0.55 0.241 0.737-0.018 0.191-0.128 0.344-0.33 0.459v0l-2.422 1.373 5.099 8.99c0.449 0.792 0.901 1.269 1.354 1.429 0.45 0.154 0.913 0.096 1.389-0.174v0c0.369-0.209 0.643-0.393 0.822-0.549 0.179-0.157 0.301-0.253 0.367-0.291v0c0.173-0.098 0.414-0.006 0.723 0.275 0.309 0.281 0.523 0.526 0.641 0.735v0c0.324 0.572-0.213 1.255-1.613 2.049z" fill="#ffffff" data-fill-palette-color="primary"></path><path d="M224.623 252.963c-0.76 0.551-1.537 0.966-2.332 1.246-0.791 0.286-1.481 0.431-2.07 0.435-0.589 0.004-0.96-0.099-1.113-0.309v0c-0.076-0.105-0.142-0.307-0.198-0.606-0.055-0.298-0.075-0.588-0.06-0.87 0.025-0.28 0.096-0.463 0.213-0.547v0c0.033-0.024 0.161-0.041 0.383-0.049v0c0.594-0.033 1.181-0.121 1.763-0.264 0.582-0.143 1.186-0.441 1.812-0.895v0c1.752-1.27 2.101-2.632 1.048-4.085v0c-0.302-0.416-0.638-0.705-1.009-0.867-0.371-0.162-0.83-0.211-1.374-0.145-0.545 0.065-1.23 0.24-2.055 0.525v0c-1.166 0.422-2.153 0.647-2.962 0.676-0.799 0.03-1.488-0.122-2.068-0.455-0.576-0.327-1.117-0.84-1.623-1.538v0c-0.539-0.743-0.837-1.551-0.894-2.423-0.053-0.867 0.141-1.714 0.581-2.541 0.441-0.827 1.091-1.552 1.951-2.175v0c0.593-0.43 1.205-0.789 1.833-1.076 0.629-0.287 1.177-0.465 1.645-0.532 0.467-0.068 0.769-0.007 0.905 0.181v0c0.105 0.144 0.196 0.37 0.275 0.676 0.075 0.301 0.104 0.593 0.088 0.875-0.01 0.278-0.07 0.457-0.181 0.537v0c-0.022 0.016-0.196 0.045-0.521 0.086-0.321 0.047-0.7 0.143-1.135 0.29-0.437 0.156-0.871 0.391-1.304 0.705v0c-0.688 0.498-1.143 1.066-1.367 1.702-0.228 0.631-0.155 1.204 0.219 1.719v0c0.438 0.604 0.951 0.973 1.537 1.106 0.588 0.123 1.339 0.032 2.251-0.274v0c1.411-0.481 2.545-0.766 3.402-0.856 0.862-0.083 1.605 0.038 2.23 0.363 0.63 0.321 1.245 0.895 1.844 1.721v0c0.571 0.787 0.876 1.657 0.915 2.61 0.041 0.943-0.167 1.864-0.624 2.762-0.461 0.893-1.129 1.656-2.005 2.292z" fill="#ffffff" data-fill-palette-color="primary"></path><path d="M243.291 235.891c-0.232 0.261-0.462 0.395-0.69 0.403-0.227 0.018-0.466-0.085-0.716-0.308v0l-15.879-14.159c-0.261-0.232-0.395-0.462-0.404-0.69-0.008-0.218 0.105-0.457 0.338-0.718v0l3.958-4.439c1.076-1.206 2.164-2.062 3.266-2.567 1.096-0.509 2.163-0.677 3.201-0.503 1.033 0.169 1.987 0.643 2.861 1.422v0c0.537 0.479 0.962 1.082 1.275 1.812 0.313 0.729 0.475 1.474 0.485 2.235 0.015 0.766-0.126 1.443-0.422 2.032v0l0.1 0.089c-0.066-0.059 0.343-0.272 1.229-0.638 0.882-0.361 1.857-0.528 2.925-0.502 1.069 0.026 2.089 0.472 3.06 1.338v0c3.328 2.967 3.068 6.608-0.779 10.922v0zM234.701 225.644l2.57-2.883c0.583-0.654 0.978-1.354 1.183-2.098 0.209-0.749 0.224-1.47 0.043-2.163-0.18-0.683-0.541-1.267-1.082-1.75v0c-0.93-0.83-1.859-1.157-2.785-0.983-0.931 0.17-1.944 0.868-3.038 2.095v0l-2.488 2.791zM242.69 232.768l3.234-3.627c0.971-1.089 1.434-2.185 1.391-3.288-0.039-1.099-0.556-2.093-1.553-2.982v0c-0.92-0.82-1.923-1.132-3.008-0.934-1.09 0.193-2.2 0.924-3.331 2.192v0l-2.844 3.19z" fill="#ffffff" data-fill-palette-color="primary"></path><path d="M260.858 213.038c-1.475 2.333-3.176 3.68-5.106 4.04-1.933 0.366-4.153-0.243-6.66-1.827v0c-2.489-1.573-4.027-3.319-4.613-5.237-0.592-1.922-0.208-3.959 1.153-6.113v0c1.211-1.916 2.743-2.969 4.597-3.158 1.859-0.186 3.99 0.48 6.393 1.998v0c0.104 0.066 0.214 0.212 0.33 0.44 0.116 0.227 0.196 0.46 0.239 0.698 0.046 0.248 0.036 0.424-0.029 0.528v0l-5.604 8.866c1.642 0.876 3.044 1.195 4.207 0.958 1.153-0.235 2.169-1.048 3.047-2.437v0c0.494-0.782 0.826-1.512 0.996-2.19 0.164-0.682 0.273-1.375 0.328-2.078v0c0.016-0.063 0.032-0.166 0.05-0.309 0.014-0.137 0.033-0.226 0.059-0.266v0c0.073-0.116 0.25-0.19 0.53-0.224 0.278-0.043 0.565-0.048 0.86-0.015 0.301 0.036 0.504 0.087 0.608 0.153v0c0.232 0.146 0.343 0.541 0.334 1.183-0.009 0.642-0.157 1.416-0.445 2.32-0.293 0.9-0.718 1.79-1.274 2.67zM249.535 211.994l4.615-7.303c-2.947-1.862-5.13-1.671-6.549 0.576v0c-1.522 2.408-0.878 4.651 1.934 6.727z" fill="#ffffff" data-fill-palette-color="primary"></path><path d="M269.168 197.516c-0.385 0.856-0.853 1.603-1.403 2.241-0.544 0.641-1.071 1.11-1.58 1.407-0.509 0.297-0.882 0.391-1.12 0.284v0c-0.119-0.053-0.276-0.196-0.472-0.427-0.196-0.231-0.358-0.473-0.485-0.725-0.118-0.256-0.147-0.449-0.088-0.58v0c0.017-0.037 0.119-0.115 0.308-0.234v0c0.499-0.324 0.965-0.692 1.399-1.105 0.434-0.413 0.81-0.972 1.128-1.678v0c0.889-1.973 0.515-3.328-1.122-4.065v0c-0.468-0.211-0.904-0.294-1.307-0.25-0.403 0.044-0.824 0.23-1.264 0.557-0.44 0.327-0.948 0.82-1.522 1.478v0c-0.802 0.946-1.546 1.632-2.234 2.058-0.679 0.423-1.352 0.634-2.02 0.634-0.662 0.002-1.386-0.174-2.174-0.528v0c-0.837-0.377-1.497-0.929-1.98-1.658-0.477-0.726-0.73-1.557-0.758-2.493-0.029-0.937 0.175-1.889 0.61-2.857v0c0.301-0.668 0.653-1.283 1.057-1.846 0.403-0.562 0.791-0.988 1.162-1.279 0.371-0.291 0.663-0.389 0.875-0.293v0c0.162 0.073 0.354 0.223 0.575 0.45 0.214 0.224 0.385 0.463 0.511 0.715 0.13 0.246 0.166 0.432 0.11 0.557v0c-0.011 0.025-0.148 0.136-0.409 0.334-0.255 0.2-0.536 0.472-0.841 0.815-0.301 0.352-0.562 0.772-0.781 1.26v0c-0.349 0.774-0.462 1.493-0.34 2.156 0.116 0.66 0.464 1.121 1.045 1.383v0c0.681 0.307 1.309 0.371 1.884 0.195 0.572-0.186 1.177-0.638 1.816-1.356v0c0.985-1.119 1.827-1.93 2.527-2.434 0.706-0.501 1.411-0.765 2.115-0.794 0.707-0.035 1.525 0.157 2.455 0.576v0c0.887 0.399 1.584 1.002 2.092 1.81 0.504 0.798 0.782 1.7 0.832 2.707 0.044 1.004-0.156 1.999-0.601 2.985z" fill="#ffffff" data-fill-palette-color="primary"></path><path d="M275.346 180.501c-0.338 1.057-0.96 1.897-1.864 2.52-0.904 0.624-2.172 0.674-3.803 0.153v0l-10.087-3.23-0.507 1.585c-0.073 0.228-0.2 0.367-0.382 0.417-0.183 0.056-0.441 0.031-0.774-0.075v0l-0.392-0.126c-0.333-0.107-0.554-0.235-0.664-0.385-0.119-0.146-0.141-0.333-0.068-0.561v0l0.507-1.585-3.197-1.434c-0.45-0.166-0.571-0.575-0.362-1.227v0l0.097-0.303c0.107-0.333 0.24-0.559 0.401-0.68 0.161-0.121 0.359-0.144 0.594-0.069v0l3.316 1.062 0.849-2.652c0.071-0.222 0.198-0.361 0.382-0.417 0.175-0.052 0.429-0.025 0.761 0.082v0l0.392 0.125c0.333 0.107 0.558 0.233 0.677 0.379 0.117 0.152 0.139 0.339 0.068 0.561v0l-0.849 2.652 9.842 3.151c0.867 0.278 1.522 0.322 1.964 0.133 0.435-0.191 0.736-0.548 0.904-1.07v0c0.129-0.404 0.207-0.725 0.232-0.961 0.025-0.236 0.05-0.39 0.072-0.462v0c0.061-0.189 0.3-0.285 0.718-0.288 0.418-0.003 0.741 0.032 0.97 0.105v0c0.626 0.2 0.694 1.067 0.203 2.6z" fill="#ffffff" data-fill-palette-color="primary"></path><path d="M9.912 140.759c0-1.942 1.574-3.517 3.517-3.517 1.942 0 3.517 1.574 3.516 3.517 0 1.942-1.574 3.517-3.516 3.517-1.942 0-3.517-1.574-3.517-3.517z" fill="#ffffff" data-fill-palette-color="primary"></path><path d="M268.535 140.759c0-1.942 1.574-3.517 3.517-3.517 1.942 0 3.517 1.574 3.516 3.517 0 1.942-1.574 3.517-3.516 3.517-1.942 0-3.517-1.574-3.517-3.517z" fill="#ffffff" data-fill-palette-color="primary"></path></g></svg></g></svg></g></svg></g></svg></g><defs></defs></svg><rect width="279.72" height="279.72" fill="none" stroke="none" visibility="hidden"></rect></g></svg></g></svg>