<svg height="24" viewBox="0 0 24 24" width="24" xmlns="http://www.w3.org/2000/svg" xmlns:xlink="http://www.w3.org/1999/xlink"><linearGradient id="a" x1="0%" x2="100%" y1=".004%" y2="99.996%"><stop offset="0" stop-color="#5be584"/><stop offset="1" stop-color="#00ab55"/></linearGradient><linearGradient id="b"><stop offset="0" stop-color="#ffe16a"/><stop offset="1" stop-color="#b78103"/></linearGradient><linearGradient id="c" x1="0%" x2="100%" xlink:href="#b" y1="33.335%" y2="66.665%"/><linearGradient id="d" x1="46.26%" x2="53.74%" xlink:href="#b" y1="0%" y2="100%"/><g fill="none" fill-rule="evenodd"><path d="m15.048 20.02c-1.0907987-1.8799016-.7822977-4.2581652.7520392-5.7975424 1.534337-1.5393772 3.9115761-1.8556761 5.7950449-.7710485 1.8834688 1.0846277 2.8030986 3.2994848 2.2418005 5.3992029-.5612982 2.0997182-2.4634376 3.5602579-4.6368846 3.5604215-1.7129421.0063742-3.2977706-.9062763-4.152-2.3910335z" fill="url(#a)"/><path d="m19.2 5.5775v7.2335c-1.7166788.0001456-3.3026139.9169895-4.1593869 2.4045801-.856773 1.4875907-.8539564 3.3194709.0073869 4.8044199l-5.448 3.145v-12.046l9.599-5.542z" fill="#ffe16a"/><path d="m9.6 11.119-3.343-1.93 9.6-5.542 3.342 1.93z" fill="#ffc107"/><path d="m15.857 3.647-9.6 5.542-2.446-1.412 9.598-5.542z" fill="url(#c)"/><path d="m9.6.035 3.809 2.2-9.598 5.542h-.001l-3.809-2.2z" fill="#ffe16a"/><path d="m9.6 11.119v12.046l-9.6-5.543v-12.045h.001l3.809 2.2v7.987l1.163-.48 1.267 1.44v-7.525l.017-.01z" fill="#ffc107"/><path d="m6.257 9.189-.017.01v7.525l-1.267-1.44-1.163.48v-7.987h.001z" fill="url(#d)"/><path d="m1.2415 17.7185c-.19329966 0-.35-.1567003-.35-.35v-1.296c0-.1932997.15670034-.35.35-.35s.35.1567003.35.35v1.296c0 .1932997-.15670034.35-.35.35zm1.421.8315c-.19329966 0-.35-.1567003-.35-.35v-1.1675c0-.1932997.15670034-.35.35-.35s.35.1567003.35.35v1.1675c0 .1932997-.15670034.35-.35.35zm1.4215.8205c-.19329966 0-.35-.1567003-.35-.35v-1.028c0-.1932997.15670034-.35.35-.35s.35.1567003.35.35v1.028c0 .1932997-.15670034.35-.35.35zm1.421.8205c-.19329966 0-.35-.1567003-.35-.35v-.8885c0-.1932997.15670034-.35.35-.35s.35.1567003.35.35v.8885c0 .1932997-.15670034.35-.35.35zm1.421.8395c-.19329966 0-.35-.1567003-.35-.35v-.768c0-.1932997.15670034-.35.35-.35s.35.1567003.35.35v.768c0 .1932997-.15670034.35-.35.35z" fill="#ffe16a"/><path d="m11.5888 18.0470503c-.1585311.0002073-.2974056-.1061671-.3384968-.2592803-.0410911-.1531132.0258634-.3147262.1631968-.39392l1.5945-.9205c.1082961-.0625215.2417207-.0625184.350014.000008.1082932.0625265.175.1780771.175.3031251 0 .1250479-.0667179.2405954-.175014.3031169l-1.5945.9204c-.0530713.0308005-.1133385.0470316-.1747.0470503z" fill="#b78103"/><path d="m18.11 19.3200003c-.1025165.0001366-.1999191-.0447622-.2664-.1228003l-1.16-1.35895c-.0822583-.0949733-.1072983-.2267514-.0656083-.3452769s.1437126-.2056108.2673136-.2281755c.1236009-.0225647.2498135.0228536.3306947.1190024l.93805 1.09895 3.075-2.50175c.0969003-.0798306.2291361-.1016444.3465425-.0571661.1174065.0444783.2019957.1484341.2216779.2724309s-.0285581.2490369-.1264204.3276852l-3.34 2.71755c-.0623537.0508655-.1403809.0785998-.22085.0785003z" fill="#005249" fill-rule="nonzero"/><path d="m12.5425 11.3317c-.0771973-.0817777-.1889878-.1214799-.3004729-.1067123-.1114852.0147677-.2090836.082206-.2623271.1812623l-.845 1.572c-.0583242.1084299-.0553868.2395303.0077352.3452392s.1771439.1704773.3002648.1705608c.1305767.0002905.2510292-.0702925.3146-.18435l.1927-.34735v3.00865c0 .1932997.1567003.35.35.35s.35-.1567003.35-.35v-3.51845l.2845.30775c.0631331.0674517.1505922.1068933.2429416.1095598s.1819386-.0316631.2488584-.0953598c.0673574-.0639388.106541-.152027.108923-.2448683.002382-.0928414-.032233-.182823-.096223-.2501317z" fill="#b78103"/></g></svg>