<svg width="64" height="64" viewBox="0 0 64 64" fill="none" xmlns="http://www.w3.org/2000/svg">
<g opacity="0.48">
<path d="M12.133 21.5614C12.133 27.0199 16.5998 31.3942 22.1736 31.3942C27.7454 31.3942 32.2141 27.0199 32.2141 21.5614C32.2141 16.1029 27.7454 11.7286 22.1736 11.7286C16.5998 11.7286 12.133 16.1029 12.133 21.5614Z" fill="url(#paint0_linear_2581_180286)"/>
<path d="M37.3479 42.5273C37.3479 37.4744 30.3579 36.2102 22.174 36.2102C13.9456 36.2102 7 37.518 7 42.5748C7 47.6278 13.99 48.892 22.174 48.892C30.4024 48.892 37.3479 47.5842 37.3479 42.5273Z" fill="url(#paint1_linear_2581_180286)"/>
</g>
<path d="M23.9326 20.8952C23.9326 28.0537 29.7904 33.7903 37.1002 33.7903C44.4073 33.7903 50.2678 28.0537 50.2678 20.8952C50.2678 13.7367 44.4073 8 37.1002 8C29.7904 8 23.9326 13.7367 23.9326 20.8952Z" fill="url(#paint2_linear_2581_180286)"/>
<path d="M56.9997 48.3917C56.9997 41.7651 47.8328 40.1072 37.1 40.1072C26.3089 40.1072 17.2002 41.8222 17.2002 48.454C17.2002 55.0806 26.3672 56.7386 37.1 56.7386C47.891 56.7386 56.9997 55.0235 56.9997 48.3917Z" fill="url(#paint3_linear_2581_180286)"/>
<g opacity="0.48">
<path d="M23.9326 20.8952C23.9326 28.0537 29.7904 33.7903 37.1002 33.7903C44.4073 33.7903 50.2678 28.0537 50.2678 20.8952C50.2678 13.7367 44.4073 8 37.1002 8C29.7904 8 23.9326 13.7367 23.9326 20.8952Z" fill="url(#paint4_linear_2581_180286)"/>
<path d="M56.9997 48.3917C56.9997 41.7651 47.8328 40.1072 37.1 40.1072C26.3089 40.1072 17.2002 41.8222 17.2002 48.454C17.2002 55.0806 26.3672 56.7386 37.1 56.7386C47.891 56.7386 56.9997 55.0235 56.9997 48.3917Z" fill="url(#paint5_linear_2581_180286)"/>
</g>
<path opacity="0.04" d="M37.1002 33.2903C30.0567 33.2903 24.4326 27.7677 24.4326 20.8952C24.4326 14.0226 30.0567 8.5 37.1002 8.5C44.1411 8.5 49.7678 14.0227 49.7678 20.8952C49.7678 27.7677 44.1411 33.2903 37.1002 33.2903ZM37.1 40.6072C42.4554 40.6072 47.3613 41.0227 50.9128 42.2376C52.6857 42.844 54.0846 43.6377 55.0362 44.645C55.9765 45.6404 56.4997 46.8641 56.4997 48.3917C56.4997 49.9219 55.9793 51.1507 55.0427 52.1522C54.0952 53.1654 52.7015 53.9662 50.9327 54.5797C47.3891 55.8088 42.4838 56.2386 37.1 56.2386C31.7445 56.2386 26.8386 55.823 23.2871 54.6082C21.5142 54.0017 20.1153 53.2081 19.1637 52.2007C18.2234 51.2053 17.7002 49.9817 17.7002 48.454C17.7002 46.9239 18.2206 45.695 19.1572 44.6936C20.1048 43.6804 21.4985 42.8796 23.2673 42.2661C26.8109 41.0369 31.7162 40.6072 37.1 40.6072Z" stroke="black"/>
<defs>
<linearGradient id="paint0_linear_2581_180286" x1="7" y1="11.7286" x2="43.4135" y2="41.4641" gradientUnits="userSpaceOnUse">
<stop stop-color="#C684FF"/>
<stop offset="1" stop-color="#8E33FF"/>
</linearGradient>
<linearGradient id="paint1_linear_2581_180286" x1="7" y1="11.7286" x2="43.4135" y2="41.4641" gradientUnits="userSpaceOnUse">
<stop stop-color="#C684FF"/>
<stop offset="1" stop-color="#8E33FF"/>
</linearGradient>
<linearGradient id="paint2_linear_2581_180286" x1="17.2002" y1="8" x2="64.9552" y2="46.9963" gradientUnits="userSpaceOnUse">
<stop stop-color="#C684FF"/>
<stop offset="1" stop-color="#8E33FF"/>
</linearGradient>
<linearGradient id="paint3_linear_2581_180286" x1="17.2002" y1="8" x2="64.9552" y2="46.9963" gradientUnits="userSpaceOnUse">
<stop stop-color="#C684FF"/>
<stop offset="1" stop-color="#8E33FF"/>
</linearGradient>
<linearGradient id="paint4_linear_2581_180286" x1="17.2002" y1="8" x2="64.9552" y2="46.9963" gradientUnits="userSpaceOnUse">
<stop stop-color="#8E33FF"/>
<stop offset="1" stop-color="#5119B7"/>
</linearGradient>
<linearGradient id="paint5_linear_2581_180286" x1="17.2002" y1="8" x2="64.9552" y2="46.9963" gradientUnits="userSpaceOnUse">
<stop stop-color="#8E33FF"/>
<stop offset="1" stop-color="#5119B7"/>
</linearGradient>
</defs>
</svg>
