<svg width="64" height="64" viewBox="0 0 64 64" fill="none" xmlns="http://www.w3.org/2000/svg">
<path opacity="0.48" d="M32.912 22.4416L32.9128 22.4377L33.0211 22.0336C34.1115 17.1555 31.1485 12.2812 26.3038 10.9831C21.459 9.68494 16.4559 12.4247 14.9612 17.1944C14.9012 17.323 14.8642 17.4611 14.8519 17.6024L17.5128 18.3154C17.5728 18.1868 17.6098 18.0488 17.6222 17.9074C18.551 14.441 22.1237 12.3865 25.6021 13.3185C29.0804 14.2505 31.1472 17.8162 30.2184 21.2826C30.1828 21.4226 30.1724 21.5679 30.1878 21.7117L14.7102 17.5644C12.3936 16.9437 9.50735 17.8095 7.68682 21.7279L3.2802 32.5497C-0.0732567 40.4637 3.60985 43.6537 9.13788 45.1349L24.1243 49.1505C29.6363 50.6274 34.5399 48.7512 35.4737 41.176L37.0844 29.605C37.3083 25.3821 35.3524 23.0955 33.0677 22.4833L32.912 22.4416Z" fill="url(#paint0_linear_2581_180288)"/>
<path fill-rule="evenodd" clip-rule="evenodd" d="M45.9755 17.205C45.8697 16.7652 45.7895 16.4418 45.7745 16.3935L45.633 15.8655C43.8335 10.1231 37.8101 6.82466 31.9774 8.38753C26.1447 9.9504 22.5775 15.8187 23.8902 21.6915C23.8957 21.7545 24.0451 22.3389 24.2347 23.0573C21.6807 23.9935 19.543 26.6156 19.9728 31.4506L21.8927 45.3864C23.1601 55.6563 28.9205 56.7652 35.5758 54.9819L53.6183 50.1475C60.2544 48.3693 64.2376 43.4614 60.6513 35.001L55.3653 21.9672C53.0567 17.4295 49.641 16.2228 46.8904 16.9598L45.9755 17.205ZM42.6309 18.1012L27.4716 22.1631C27.2796 21.4577 27.1203 20.8898 27.0938 20.8331C25.9756 16.6598 28.4639 12.367 32.6516 11.2449C36.8393 10.1228 41.1406 12.5963 42.2588 16.7696L42.2928 16.8918C42.3521 17.105 42.4797 17.5636 42.6309 18.1012Z" fill="url(#paint1_linear_2581_180288)"/>
<path opacity="0.48" fill-rule="evenodd" clip-rule="evenodd" d="M45.9755 17.205C45.8697 16.7652 45.7895 16.4418 45.7745 16.3935L45.633 15.8655C43.8335 10.1231 37.8101 6.82466 31.9774 8.38753C26.1447 9.9504 22.5775 15.8187 23.8902 21.6915C23.8957 21.7545 24.0451 22.3389 24.2347 23.0573C21.6807 23.9935 19.543 26.6156 19.9728 31.4506L21.8927 45.3864C23.1601 55.6563 28.9205 56.7652 35.5758 54.9819L53.6183 50.1475C60.2544 48.3693 64.2376 43.4614 60.6513 35.001L55.3653 21.9672C53.0567 17.4295 49.641 16.2228 46.8904 16.9598L45.9755 17.205ZM42.6309 18.1012L27.4716 22.1631C27.2796 21.4577 27.1203 20.8898 27.0938 20.8331C25.9756 16.6598 28.4639 12.367 32.6516 11.2449C36.8393 10.1228 41.1406 12.5963 42.2588 16.7696L42.2928 16.8918C42.3521 17.105 42.4797 17.5636 42.6309 18.1012Z" fill="url(#paint2_linear_2581_180288)"/>
<path opacity="0.04" d="M45.4893 17.3219L45.6093 17.8208L46.1049 17.688L47.0198 17.4428C49.489 16.7812 52.6838 17.8142 54.91 22.175L60.1879 35.1889L60.1879 35.189L60.1909 35.1962C61.945 39.3341 61.8111 42.5072 60.53 44.8393C59.2417 47.1846 56.7302 48.796 53.4889 49.6645L35.4464 54.499C32.1554 55.3808 29.2119 55.5087 26.9549 54.2661C24.7238 53.0378 23.013 50.3817 22.3889 45.3251L22.3889 45.3251L22.388 45.3181L20.4698 31.3944C20.2645 29.064 20.6803 27.3113 21.4171 26.0431C22.1545 24.774 23.2316 23.9575 24.4068 23.5267L24.8343 23.37L24.7182 22.9297C24.6236 22.5712 24.5393 22.2473 24.4781 22.0059C24.4475 21.8849 24.4231 21.7864 24.4063 21.7152C24.3916 21.6535 24.3873 21.6308 24.3869 21.6309L24.3855 21.6149L24.3782 21.5824C23.1242 15.9726 26.5315 10.3644 32.1068 8.87049C37.6787 7.37749 43.43 10.526 45.1528 16.0051L45.2915 16.5229L45.2941 16.5327L45.2972 16.5423C45.297 16.5418 45.297 16.5419 45.2973 16.5429C45.2983 16.5467 45.3031 16.5642 45.3131 16.6031C45.3239 16.6452 45.3382 16.7024 45.3556 16.7727C45.3904 16.9131 45.4366 17.1027 45.4893 17.3219ZM42.7603 18.5841L43.2493 18.4531L43.1122 17.9658C42.9612 17.429 42.8338 16.971 42.7746 16.7578L42.7745 16.7577L42.7418 16.6402C42.7416 16.6394 42.7413 16.6386 42.7411 16.6378C41.55 12.1977 36.9742 9.56905 32.5222 10.762C28.0693 11.9551 25.4208 16.5209 26.6109 20.9625L26.6222 21.0048L26.6334 21.0287C26.6331 21.0293 26.6406 21.0508 26.6581 21.1092C26.6786 21.1778 26.7062 21.2733 26.7395 21.391C26.806 21.6259 26.8934 21.9424 26.9892 22.2944L27.12 22.7749L27.601 22.646L42.7603 18.5841Z" stroke="black"/>
<path d="M32.4467 32.8606C31.3844 33.1452 30.2857 32.4896 29.9927 31.3962C29.6997 30.3028 30.3234 29.1857 31.3858 28.901C32.4481 28.6164 33.5468 29.272 33.8397 30.3654C34.1327 31.4588 33.509 32.5759 32.4467 32.8606Z" fill="url(#paint3_linear_2581_180288)"/>
<path d="M42.5916 28.0206C42.8846 29.114 43.9833 29.7696 45.0456 29.485C46.1079 29.2003 46.7316 28.0832 46.4386 26.9898C46.1456 25.8964 45.047 25.2408 43.9846 25.5254C42.9223 25.8101 42.2986 26.9272 42.5916 28.0206Z" fill="url(#paint4_linear_2581_180288)"/>
<defs>
<linearGradient id="paint0_linear_2581_180288" x1="2" y1="10.6612" x2="40.7444" y2="45.5736" gradientUnits="userSpaceOnUse">
<stop stop-color="#73BAFB"/>
<stop offset="1" stop-color="#1877F2"/>
</linearGradient>
<linearGradient id="paint1_linear_2581_180288" x1="19.9175" y1="8" x2="67.2278" y2="49.7565" gradientUnits="userSpaceOnUse">
<stop stop-color="#73BAFB"/>
<stop offset="1" stop-color="#1877F2"/>
</linearGradient>
<linearGradient id="paint2_linear_2581_180288" x1="19.9175" y1="8" x2="67.2278" y2="49.7565" gradientUnits="userSpaceOnUse">
<stop stop-color="#1877F2"/>
<stop offset="1" stop-color="#0C44AE"/>
</linearGradient>
<linearGradient id="paint3_linear_2581_180288" x1="30.1261" y1="29.9601" x2="38.3844" y2="37.9524" gradientUnits="userSpaceOnUse">
<stop stop-color="white" stop-opacity="0.16"/>
<stop offset="1" stop-color="white" stop-opacity="0.64"/>
</linearGradient>
<linearGradient id="paint4_linear_2581_180288" x1="30.1261" y1="29.9601" x2="38.3844" y2="37.9524" gradientUnits="userSpaceOnUse">
<stop stop-color="white" stop-opacity="0.16"/>
<stop offset="1" stop-color="white" stop-opacity="0.64"/>
</linearGradient>
</defs>
</svg>
