<svg width="64" height="64" viewBox="0 0 64 64" fill="none" xmlns="http://www.w3.org/2000/svg">
<path opacity="0.48" d="M39.4251 10.5168C37.1706 9.21199 34.4888 8.86675 31.9774 9.53967L13.4762 14.497C8.2306 15.9026 5.13409 21.2687 6.53413 26.4937L10.4984 41.2886C11.8985 46.5137 17.2819 49.6075 22.5088 48.207L41.0099 43.2496C46.2369 41.8491 49.354 36.4775 47.9539 31.2525L43.9896 16.4575C43.3172 13.948 41.6805 11.8173 39.4251 10.5168Z" fill="url(#paint0_linear_2581_180287)"/>
<path d="M56.7953 20.2744C54.7416 18.2164 51.95 17.0695 49.048 17.0695H27.6693C21.6078 17.0695 16.7192 21.9602 16.7192 27.9979V45.0939C16.7192 51.1316 21.6295 56.0224 27.6693 56.0224H49.048C55.0879 56.0224 60.0003 51.1316 60.0003 45.0939V27.9979C60.0003 25.0981 58.8512 22.3281 56.7953 20.2744Z" fill="url(#paint1_linear_2581_180287)"/>
<path opacity="0.48" d="M56.7953 20.2744C54.7416 18.2164 51.95 17.0695 49.048 17.0695H27.6693C21.6078 17.0695 16.7192 21.9602 16.7192 27.9979V45.0939C16.7192 51.1316 21.6295 56.0224 27.6693 56.0224H49.048C55.0879 56.0224 60.0003 51.1316 60.0003 45.0939V27.9979C60.0003 25.0981 58.8512 22.3281 56.7953 20.2744Z" fill="url(#paint2_linear_2581_180287)"/>
<g opacity="0.04">
<mask id="path-4-inside-1_2581_180287" fill="white">
<path d="M56.7953 20.2744C54.7416 18.2164 51.95 17.0695 49.048 17.0695H27.6693C21.6078 17.0695 16.7192 21.9602 16.7192 27.9979V45.0939C16.7192 51.1316 21.6295 56.0224 27.6693 56.0224H49.048C55.0879 56.0224 60.0003 51.1316 60.0003 45.0939V27.9979C60.0003 25.0981 58.8512 22.3281 56.7953 20.2744Z"/>
</mask>
<path d="M57.5032 19.5681C55.2602 17.3204 52.2132 16.0695 49.048 16.0695V18.0695C51.6868 18.0695 54.223 19.1124 56.0875 20.9808L57.5032 19.5681ZM49.048 16.0695H27.6693V18.0695H49.048V16.0695ZM27.6693 16.0695C21.0567 16.0695 15.7192 21.4068 15.7192 27.9979H17.7192C17.7192 22.5137 22.159 18.0695 27.6693 18.0695V16.0695ZM15.7192 27.9979V45.0939H17.7192V27.9979H15.7192ZM15.7192 45.0939C15.7192 51.6864 21.0796 57.0224 27.6693 57.0224V55.0224C22.1793 55.0224 17.7192 50.5769 17.7192 45.0939H15.7192ZM27.6693 57.0224H49.048V55.0224H27.6693V57.0224ZM49.048 57.0224C55.6374 57.0224 61.0003 51.6866 61.0003 45.0939H59.0003C59.0003 50.5766 54.5383 55.0224 49.048 55.0224V57.0224ZM61.0003 45.0939V27.9979H59.0003V45.0939H61.0003ZM61.0003 27.9979C61.0003 24.8322 59.7453 21.8078 57.502 19.5669L56.0886 20.9819C57.957 22.8484 59.0003 25.364 59.0003 27.9979H61.0003Z" fill="black" mask="url(#path-4-inside-1_2581_180287)"/>
</g>
<path d="M52.6642 31.0492L52.4911 31.2223L42.7291 39.0345C41.5194 39.9867 40.024 40.5061 38.4897 40.5061C36.9511 40.5061 35.4817 39.9867 34.2698 39.0345L24.4234 31.3521L24.1399 31.0708C23.6443 30.4216 23.7092 29.4911 24.2935 28.9068C24.854 28.3225 25.7846 28.2576 26.4576 28.7553L36.1958 36.5459C37.4704 37.5868 39.2688 37.5868 40.5239 36.5459L50.2816 28.7553C50.6084 28.4523 51.0412 28.2987 51.4957 28.3225C51.9263 28.3658 52.3396 28.5627 52.6404 28.8851C53.1815 29.5127 53.1815 30.4216 52.6642 31.0492Z" fill="url(#paint3_linear_2581_180287)"/>
<defs>
<linearGradient id="paint0_linear_2581_180287" x1="4" y1="17.0362" x2="47.5044" y2="45.3021" gradientUnits="userSpaceOnUse">
<stop stop-color="#FFAC82"/>
<stop offset="1" stop-color="#FF5630"/>
</linearGradient>
<linearGradient id="paint1_linear_2581_180287" x1="16.7192" y1="17.0695" x2="55.457" y2="60.1114" gradientUnits="userSpaceOnUse">
<stop stop-color="#FFAC82"/>
<stop offset="1" stop-color="#FF5630"/>
</linearGradient>
<linearGradient id="paint2_linear_2581_180287" x1="16.7192" y1="17.0695" x2="55.457" y2="60.1114" gradientUnits="userSpaceOnUse">
<stop stop-color="#FF5630"/>
<stop offset="1" stop-color="#B71D18"/>
</linearGradient>
<linearGradient id="paint3_linear_2581_180287" x1="24.1701" y1="35.6649" x2="37.6395" y2="49.7453" gradientUnits="userSpaceOnUse">
<stop stop-color="white" stop-opacity="0.16"/>
<stop offset="1" stop-color="white" stop-opacity="0.64"/>
</linearGradient>
</defs>
</svg>
