<svg width="64" height="64" viewBox="0 0 64 64" fill="none" xmlns="http://www.w3.org/2000/svg">
<path opacity="0.48" d="M43.4118 15.2792C42.6075 14.3345 41.8032 13.9033 40.5766 13.9033H13.4218C12.7783 13.9033 12.2555 13.4104 12.1952 12.7512L11.8132 8.15124C11.7528 7.45303 11.2502 6.88008 10.5665 6.75481L5.77093 6.01758C4.94653 5.89232 4.16235 6.44883 4.0216 7.28874C3.88085 8.11017 4.44385 8.91106 5.24814 9.05481C7.03701 9.36938 8.38864 10.8509 8.53822 12.661L10.1342 31.9746C10.3554 34.6853 12.5672 36.7779 15.2415 36.7779H37.1785C39.7321 36.7779 41.9037 34.8702 42.2656 32.2806L44.1758 18.8092C44.3568 17.5792 44.216 16.2238 43.4118 15.2792Z" fill="url(#paint0_linear_2581_180285)"/>
<path d="M20.2268 22.7221C18.893 22.7221 18.0184 23.191 17.1439 24.2182C16.2693 25.2454 16.1162 26.7192 16.313 28.0568L18.3901 42.7055C18.7837 45.5214 21.1451 47.5959 23.9219 47.5959H47.7762C50.6842 47.5959 53.0893 45.3204 53.3298 42.3728L55.3413 18.0304L58.6429 17.4498C59.5175 17.2935 60.1297 16.4226 59.9766 15.5294C59.8236 14.6161 58.9708 14.011 58.0744 14.1472L52.8597 14.9488C52.1163 15.0851 51.5697 15.7081 51.5041 16.4673L51.0887 21.4693C51.0231 22.1861 50.4546 22.7221 49.7549 22.7221H20.2268Z" fill="url(#paint1_linear_2581_180285)"/>
<path d="M48.1267 51.1256C49.9633 51.1256 51.4501 52.6441 51.4501 54.5199C51.4501 56.3733 49.9633 57.8917 48.1267 57.8917C46.312 57.8917 44.8252 56.3733 44.8252 54.5199C44.8252 52.6441 46.312 51.1256 48.1267 51.1256Z" fill="url(#paint2_linear_2581_180285)"/>
<path d="M23.5292 51.1256C25.3659 51.1256 26.8527 52.6441 26.8527 54.5199C26.8527 56.3733 25.3659 57.8917 23.5292 57.8917C21.7145 57.8917 20.2277 56.3733 20.2277 54.5199C20.2277 52.6441 21.7145 51.1256 23.5292 51.1256Z" fill="url(#paint3_linear_2581_180285)"/>
<g opacity="0.48">
<path d="M20.2268 22.7221C18.893 22.7221 18.0184 23.191 17.1439 24.2182C16.2693 25.2454 16.1162 26.7192 16.313 28.0568L18.3901 42.7055C18.7837 45.5214 21.1451 47.5959 23.9219 47.5959H47.7762C50.6842 47.5959 53.0893 45.3204 53.3298 42.3728L55.3413 18.0304L58.6429 17.4498C59.5175 17.2935 60.1297 16.4226 59.9766 15.5294C59.8236 14.6161 58.9708 14.011 58.0744 14.1472L52.8597 14.9488C52.1163 15.0851 51.5697 15.7081 51.5041 16.4673L51.0887 21.4693C51.0231 22.1861 50.4546 22.7221 49.7549 22.7221H20.2268Z" fill="url(#paint4_linear_2581_180285)"/>
<path d="M48.1267 51.1256C49.9633 51.1256 51.4501 52.6441 51.4501 54.5199C51.4501 56.3733 49.9633 57.8917 48.1267 57.8917C46.312 57.8917 44.8252 56.3733 44.8252 54.5199C44.8252 52.6441 46.312 51.1256 48.1267 51.1256Z" fill="url(#paint5_linear_2581_180285)"/>
<path d="M23.5292 51.1256C25.3659 51.1256 26.8527 52.6441 26.8527 54.5199C26.8527 56.3733 25.3659 57.8917 23.5292 57.8917C21.7145 57.8917 20.2277 56.3733 20.2277 54.5199C20.2277 52.6441 21.7145 51.1256 23.5292 51.1256Z" fill="url(#paint6_linear_2581_180285)"/>
</g>
<path opacity="0.04" d="M16.8081 27.9866L16.8077 27.984C16.6205 26.7118 16.7842 25.4118 17.5246 24.5423C17.9333 24.0623 18.3195 23.7393 18.7355 23.5328C19.1484 23.3277 19.6216 23.2221 20.2268 23.2221H49.7549C50.7264 23.2221 51.4987 22.4756 51.5866 21.5149L51.5869 21.5107L52.0022 16.5103C52.0491 15.9681 52.4342 15.5381 52.9434 15.4418L58.1495 14.6415C58.1497 14.6415 58.1499 14.6414 58.1501 14.6414C58.7781 14.5463 59.3759 14.9702 59.4835 15.6121L59.4838 15.6139C59.5909 16.2391 59.1563 16.8498 58.5555 16.9575C58.5553 16.9576 58.5551 16.9576 58.5549 16.9576L55.2547 17.538L54.8748 17.6048L54.843 17.9893L52.8315 42.3316L52.8314 42.3322C52.6113 45.0302 50.4139 47.0959 47.7762 47.0959H23.9219C21.4007 47.0959 19.2452 45.2114 18.8853 42.6363L18.8852 42.6353L16.8081 27.9866ZM48.1267 51.6256C49.6773 51.6256 50.9501 52.9103 50.9501 54.5199C50.9501 56.105 49.6795 57.3917 48.1267 57.3917C46.598 57.3917 45.3252 56.1071 45.3252 54.5199C45.3252 52.9081 46.6001 51.6256 48.1267 51.6256ZM23.5292 51.6256C25.0798 51.6256 26.3527 52.9103 26.3527 54.5199C26.3527 56.105 25.082 57.3917 23.5292 57.3917C22.0005 57.3917 20.7277 56.1071 20.7277 54.5199C20.7277 52.9081 22.0026 51.6256 23.5292 51.6256Z" stroke="black"/>
<path fill-rule="evenodd" clip-rule="evenodd" d="M27.4194 34.3307H33.4759C34.3942 34.3307 35.1157 33.5715 35.1157 32.6559C35.1157 31.718 34.3942 30.9811 33.4759 30.9811H27.4194C26.5011 30.9811 25.7795 31.718 25.7795 32.6559C25.7795 33.5715 26.5011 34.3307 27.4194 34.3307Z" fill="url(#paint7_linear_2581_180285)"/>
<defs>
<linearGradient id="paint0_linear_2581_180285" x1="4" y1="6" x2="33.7031" y2="44.8405" gradientUnits="userSpaceOnUse">
<stop stop-color="#FFD666"/>
<stop offset="1" stop-color="#FFAB00"/>
</linearGradient>
<linearGradient id="paint1_linear_2581_180285" x1="16.2368" y1="14.1281" x2="60.0005" y2="57.8913" gradientUnits="userSpaceOnUse">
<stop stop-color="#FFD666"/>
<stop offset="1" stop-color="#FFAB00"/>
</linearGradient>
<linearGradient id="paint2_linear_2581_180285" x1="16.2368" y1="14.1281" x2="60.0005" y2="57.8913" gradientUnits="userSpaceOnUse">
<stop stop-color="#FFD666"/>
<stop offset="1" stop-color="#FFAB00"/>
</linearGradient>
<linearGradient id="paint3_linear_2581_180285" x1="16.2368" y1="14.1281" x2="60.0005" y2="57.8913" gradientUnits="userSpaceOnUse">
<stop stop-color="#FFD666"/>
<stop offset="1" stop-color="#FFAB00"/>
</linearGradient>
<linearGradient id="paint4_linear_2581_180285" x1="16.2368" y1="14.1281" x2="60.0005" y2="57.8913" gradientUnits="userSpaceOnUse">
<stop stop-color="#FFAB00"/>
<stop offset="1" stop-color="#B76E00"/>
</linearGradient>
<linearGradient id="paint5_linear_2581_180285" x1="16.2368" y1="14.1281" x2="60.0005" y2="57.8913" gradientUnits="userSpaceOnUse">
<stop stop-color="#FFAB00"/>
<stop offset="1" stop-color="#B76E00"/>
</linearGradient>
<linearGradient id="paint6_linear_2581_180285" x1="16.2368" y1="14.1281" x2="60.0005" y2="57.8913" gradientUnits="userSpaceOnUse">
<stop stop-color="#FFAB00"/>
<stop offset="1" stop-color="#B76E00"/>
</linearGradient>
<linearGradient id="paint7_linear_2581_180285" x1="35" y1="33" x2="31.3628" y2="37.4165" gradientUnits="userSpaceOnUse">
<stop stop-color="white" stop-opacity="0.16"/>
<stop offset="1" stop-color="white" stop-opacity="0.64"/>
</linearGradient>
</defs>
</svg>
