<svg xmlns="http://www.w3.org/2000/svg" width="64" height="64" viewBox="0 0 24 24"><path fill="#FFAB00" d="M23.596 13.43H11.562a2.46 2.46 0 0 0-2.639 2.231l-.001.009a2.47 2.47 0 0 0 2.683 2.239l-.009.001h12a.57.57 0 0 0 .621-.527v-3.424a.61.61 0 0 0-.604-.529h-.018zm-12.034 3.638a1.43 1.43 0 1 1 1.43-1.43v.004c0 .788-.639 1.426-1.426 1.426zM3.295 0v6.404h1.368V3.668c.138.034.298.056.462.062h.004a1.87 1.87 0 0 0 1.866-1.865a2 2 0 0 0-.066-.481l.003.015h7.492a2.3 2.3 0 0 0-.062.462v.004a1.87 1.87 0 0 0 1.865 1.866q.252-.009.483-.066l-.016.003v2.736h1.401V0zm15.389 5.626h1.741a2.27 2.27 0 0 0-1.727-1.49l-.014-.002z"/><path fill="#FFAB00" d="M11.471 12.684h11.938V9.047a2.066 2.066 0 0 0-2.217-1.865h.007h-18.96a.1.1 0 0 0-.062-.031a.81.81 0 0 1-.466-.682v-.002a.89.89 0 0 1 .647-.776l.006-.001V4.105C1.057 4.167 0 6.032 0 8.364v13.772A2.067 2.067 0 0 0 2.215 24h-.007h18.96a2.065 2.065 0 0 0 2.207-1.857l.001-.008v-3.637H11.504c-1.927 0-3.482-1.306-3.482-2.891c0-1.616 1.554-2.922 3.45-2.922z"/></svg>